<?xml version="1.0" standalone="no"?>
<!DOCTYPE svg PUBLIC "-//W3C//DTD SVG 20010904//EN"
 "http://www.w3.org/TR/2001/REC-SVG-20010904/DTD/svg10.dtd">
<svg version="1.0" xmlns="http://www.w3.org/2000/svg"
 width="6395.000000pt" height="1079.000000pt" viewBox="0 0 6395.000000 1079.000000"
 preserveAspectRatio="xMidYMid meet">

<g transform="translate(0.000000,1079.000000) scale(0.100000,-0.100000)"
fill="#000000" stroke="none">
<path d="M48 4489 c-10 -5 -18 -7 -18 -3 0 3 -7 1 -15 -6 -13 -11 -15 -273
-15 -2246 l0 -2234 31260 0 31259 0 119 89 c383 289 659 616 858 1016 251 509
301 965 178 1655 -42 236 -179 799 -191 786 -2 -2 7 -46 21 -97 20 -72 23 -95
13 -101 -9 -6 -9 -8 1 -8 6 0 12 -4 12 -8 0 -11 -46 -9 -57 2 -5 5 -1 7 10 3
9 -4 17 -2 17 3 0 13 -27 13 -35 0 -4 -6 -10 -8 -15 -5 -5 3 -11 1 -15 -5 -8
-14 -26 -13 -22 1 1 6 -8 13 -21 15 -17 3 -21 0 -16 -8 5 -8 0 -7 -11 2 -11 9
-16 10 -11 2 4 -7 2 -12 -8 -12 -8 0 -18 4 -21 10 -3 5 -15 10 -26 10 -11 0
-17 -4 -14 -10 3 -6 -1 -7 -9 -4 -9 3 -16 9 -16 13 0 4 -7 8 -15 8 -8 0 -15
-6 -15 -12 0 -13 -70 -13 -90 0 -5 3 -10 2 -10 -3 0 -6 -15 -10 -34 -9 -19 0
-33 4 -30 8 2 4 -1 11 -7 15 -7 4 -9 3 -5 -4 3 -6 2 -13 -4 -17 -5 -3 -10 1
-10 9 0 9 -5 16 -11 16 -5 0 -7 -5 -3 -12 5 -8 2 -9 -11 -4 -11 4 -22 2 -27
-6 -5 -9 -8 -9 -8 -1 0 7 -14 10 -41 7 -22 -3 -38 -1 -35 4 3 5 -5 8 -17 7
-12 -2 -21 -8 -19 -14 2 -9 -3 -9 -18 -1 -11 6 -35 11 -55 12 -19 1 -32 4 -30
8 2 4 -2 7 -9 7 -8 0 -12 -5 -10 -12 3 -7 -9 -11 -31 -11 -19 0 -35 5 -35 11
0 5 -5 3 -10 -5 -6 -10 -10 -11 -10 -2 0 6 -4 12 -10 12 -5 0 -7 -7 -4 -14 5
-13 2 -13 -19 -3 -14 6 -23 15 -21 19 3 4 -2 5 -10 2 -9 -3 -16 -11 -16 -16 0
-6 -7 -5 -15 2 -11 10 -19 10 -27 2 -6 -6 -17 -8 -26 -4 -13 5 -12 7 4 13 12
5 4 7 -23 5 -22 -2 -46 -7 -52 -10 -6 -4 -11 -2 -11 4 0 7 -8 9 -21 5 -12 -4
-27 -8 -33 -9 -6 -1 -17 -5 -24 -10 -7 -4 -19 -2 -27 4 -8 7 -15 8 -15 3 0
-17 -53 -6 -67 13 -7 10 -13 12 -13 6 0 -7 -7 -12 -16 -12 -9 0 -12 -5 -8 -13
5 -9 3 -9 -7 1 -12 11 -12 14 1 22 8 5 10 10 5 10 -6 0 -21 -8 -34 -17 -14 -9
-21 -11 -17 -5 4 7 3 12 -3 12 -5 0 -11 -5 -13 -12 -4 -12 -38 -21 -38 -9 0 4
6 13 13 20 10 10 7 10 -15 2 -16 -6 -28 -8 -28 -5 0 4 -7 1 -15 -6 -9 -7 -15
-8 -15 -2 0 5 -9 8 -21 5 -12 -4 -25 0 -31 8 -7 10 -9 8 -5 -8 5 -22 4 -22
-26 -7 -28 15 -32 15 -43 -1 -11 -15 -13 -15 -22 1 -6 12 -11 13 -17 5 -5 -9
-10 -9 -22 1 -20 17 -46 19 -40 4 3 -7 -1 -13 -9 -13 -8 0 -14 4 -14 8 0 5
-11 4 -24 -1 -15 -5 -27 -5 -34 2 -8 8 -16 7 -28 -3 -15 -12 -17 -12 -9 0 6
11 4 13 -8 8 -12 -4 -15 -1 -11 11 5 16 5 16 -8 0 -14 -16 -40 -19 -54 -5 -4
4 -12 7 -18 7 -6 0 -4 -5 4 -11 12 -9 11 -10 -7 -6 -14 3 -23 0 -23 -6 0 -7
-4 -6 -9 2 -11 17 -79 23 -105 9 -13 -7 -16 -7 -12 1 9 14 0 14 -26 0 -11 -6
-18 -7 -15 -2 3 4 -10 9 -29 10 -19 1 -34 -3 -34 -8 0 -11 -49 -1 -69 15 -12
9 -13 8 -7 -2 6 -10 3 -13 -10 -10 -11 2 -18 10 -16 18 2 10 0 11 -11 2 -8 -7
-17 -9 -20 -5 -4 3 -7 2 -7 -4 0 -6 -9 -13 -20 -16 -14 -4 -20 0 -20 11 0 11
-3 13 -8 6 -9 -13 -59 -11 -74 4 -12 12 -41 4 -32 -9 7 -11 1 -11 -31 1 -17 7
-24 7 -20 0 4 -6 -5 -5 -20 2 -22 10 -28 9 -36 -3 -7 -11 -9 -10 -9 5 0 19 0
19 -22 0 -12 -10 -18 -13 -13 -5 6 11 2 12 -21 7 -49 -13 -84 -15 -84 -7 0 5
-9 11 -20 14 -11 3 -18 2 -15 -3 3 -4 -2 -10 -9 -13 -8 -3 -16 -1 -18 5 -2 6
-12 12 -21 14 -9 1 -15 -2 -12 -6 3 -5 1 -11 -4 -14 -5 -4 -12 -2 -16 4 -3 5
-11 10 -16 10 -6 0 -8 -4 -5 -9 4 -5 -2 -8 -11 -6 -10 1 -17 10 -17 19 1 8 -2
13 -7 10 -5 -3 -9 -11 -9 -19 0 -10 -10 -13 -37 -10 -21 2 -42 4 -46 4 -5 1
-6 5 -2 11 3 5 13 7 23 4 14 -5 15 -4 2 5 -11 7 -19 6 -29 -4 -12 -12 -16 -12
-29 3 -13 16 -13 16 -7 -3 3 -11 3 -16 -1 -13 -4 4 -15 3 -25 -2 -12 -7 -20
-7 -24 0 -4 6 -11 8 -16 5 -5 -4 -9 -1 -9 6 0 7 -8 6 -25 -5 -14 -9 -25 -12
-25 -7 0 10 -19 9 -36 -2 -7 -4 -14 0 -18 8 -4 11 -11 13 -31 5 -22 -8 -28 -6
-27 10 0 3 -11 6 -24 6 -13 1 -24 -3 -24 -8 0 -6 -8 -4 -17 3 -11 10 -14 10
-9 1 4 -6 4 -12 -1 -13 -4 0 -16 -2 -26 -4 -9 -2 -15 0 -13 4 3 4 -5 13 -16
20 -19 12 -20 11 -15 -9 4 -17 3 -19 -8 -10 -8 7 -24 9 -36 5 -14 -5 -19 -4
-15 4 11 17 -5 13 -27 -7 -11 -9 -17 -11 -13 -5 7 12 3 14 -36 17 -7 1 -12 -5
-10 -12 2 -10 -2 -10 -19 -2 -11 7 -23 9 -26 6 -4 -3 -12 -1 -20 5 -9 9 -13 8
-13 0 0 -6 -5 -11 -11 -11 -6 0 -9 6 -6 13 3 8 -1 14 -9 14 -8 0 -14 -4 -14
-8 0 -5 -13 -6 -30 -4 -16 2 -30 0 -30 -3 0 -4 -17 -7 -37 -8 -21 0 -32 1 -25
3 6 3 12 9 12 15 0 6 -12 2 -27 -7 -21 -14 -25 -15 -20 -2 4 11 0 13 -14 10
-10 -3 -16 -10 -13 -17 3 -6 -1 -3 -10 7 -14 18 -15 18 -32 -1 -13 -16 -22
-18 -39 -12 -13 5 -26 6 -31 2 -4 -4 -4 -1 0 6 6 9 1 11 -19 8 -22 -4 -24 -2
-15 9 9 11 7 12 -9 8 -12 -3 -21 -12 -21 -20 0 -13 -3 -13 -24 1 -23 14 -25
14 -29 -2 -4 -15 -5 -15 -6 2 -1 13 -5 16 -13 9 -25 -19 -47 -23 -41 -7 4 12
-1 14 -22 10 -15 -3 -30 -8 -33 -10 -3 -3 -12 0 -20 7 -13 9 -14 9 -8 -1 10
-17 -4 -15 -26 5 -17 15 -18 15 -18 0 0 -19 -27 -22 -50 -6 -12 9 -11 10 5 4
16 -5 17 -4 8 6 -10 10 -16 9 -31 -4 -16 -15 -21 -15 -38 -2 -25 19 -34 19
-34 -2 0 -14 -2 -15 -9 -4 -7 11 -9 11 -14 0 -3 -11 -8 -12 -23 -2 -11 6 -18
16 -16 23 1 6 -2 9 -7 5 -6 -3 -8 -13 -5 -23 4 -12 3 -13 -3 -4 -6 7 -18 10
-29 6 -18 -6 -18 -6 1 11 19 16 19 16 -7 1 -34 -20 -42 -20 -35 -2 4 10 1 13
-8 9 -8 -3 -13 -9 -10 -13 3 -5 1 -11 -4 -14 -5 -4 -12 -2 -15 3 -3 5 -16 7
-28 3 -13 -3 -19 -1 -15 5 3 5 0 10 -8 10 -8 0 -14 -3 -13 -6 2 -21 -4 -22
-18 -5 -13 15 -15 16 -10 2 3 -12 1 -15 -9 -11 -8 3 -13 9 -10 13 5 8 -22 7
-55 -1 -8 -2 -14 1 -13 7 3 13 -34 7 -54 -8 -7 -5 -14 -5 -17 1 -4 6 -13 8
-21 4 -9 -3 -15 1 -15 8 0 11 -2 11 -9 -1 -6 -8 -7 -19 -3 -25 3 -5 -1 -4 -10
2 -8 7 -18 10 -22 6 -4 -4 -4 1 0 11 6 16 4 17 -14 7 -17 -9 -22 -9 -23 1 0 7
-4 5 -8 -6 -7 -17 -8 -17 -24 -2 -9 10 -17 13 -17 8 0 -5 -9 -12 -20 -15 -11
-3 -20 -2 -20 3 0 4 -9 10 -20 13 -11 3 -20 1 -20 -3 0 -4 -9 -6 -20 -3 -11 3
-18 9 -15 13 3 5 -9 3 -25 -3 -25 -9 -33 -9 -39 1 -7 11 -9 11 -14 -2 -4 -10
-13 -13 -22 -9 -13 5 -14 7 -3 14 9 6 9 9 1 9 -6 0 -15 -5 -18 -10 -5 -8 -11
-8 -20 0 -10 8 -15 8 -21 -1 -4 -8 -3 -9 4 -5 7 4 12 1 12 -9 0 -13 -4 -14
-20 -5 -11 6 -18 16 -14 22 4 5 -5 3 -19 -7 -21 -13 -30 -14 -48 -5 -17 10
-23 9 -30 -1 -7 -11 -9 -11 -9 -1 0 7 -4 11 -9 7 -5 -3 -12 -1 -16 5 -3 5 -12
10 -18 10 -8 0 -8 -3 2 -9 10 -7 10 -10 1 -16 -7 -4 -16 -2 -20 5 -11 18 -70
19 -70 1 0 -10 -3 -11 -13 -3 -7 7 -27 10 -43 9 -18 -1 -28 2 -27 10 2 7 -4
10 -12 6 -11 -4 -13 -9 -5 -18 5 -6 7 -15 3 -18 -3 -4 -13 2 -21 14 -11 16
-17 17 -28 8 -11 -9 -14 -9 -14 0 0 8 -6 9 -17 3 -10 -5 -24 -7 -32 -4 -7 2
-17 -2 -22 -9 -7 -12 -9 -12 -9 0 0 8 -6 11 -16 7 -12 -5 -15 -2 -10 11 6 17
5 17 -7 1 -13 -16 -57 -21 -57 -7 0 4 -9 5 -20 2 -11 -3 -28 1 -37 8 -12 10
-14 10 -9 2 4 -7 4 -13 -1 -14 -4 0 -21 -2 -36 -4 -25 -3 -27 -1 -21 18 6 21
5 20 -14 -3 -12 -14 -21 -20 -22 -13 0 6 -9 9 -22 5 -15 -3 -19 -2 -14 7 10
15 -14 10 -33 -8 -8 -7 -16 -10 -18 -5 -4 11 -105 10 -124 -2 -11 -6 -12 -5
-2 7 10 12 8 15 -8 16 -14 1 -19 -3 -15 -13 3 -8 1 -14 -4 -14 -6 0 -10 7 -10
15 0 8 -8 15 -17 15 -15 0 -16 -2 -3 -10 13 -8 13 -10 -2 -10 -9 0 -19 6 -21
12 -4 10 -8 10 -15 -1 -8 -11 -11 -11 -16 0 -5 11 -7 11 -12 2 -4 -9 -11 -10
-22 -4 -26 14 -34 14 -43 -1 -7 -10 -9 -8 -9 7 -1 18 -2 17 -15 -5 -8 -14 -14
-20 -15 -14 0 13 -86 18 -94 5 -3 -5 -15 -7 -26 -4 -11 3 -18 9 -15 13 3 4 -4
10 -14 13 -12 3 -22 -1 -25 -9 -6 -16 -24 -15 -44 4 -8 7 -17 10 -20 7 -4 -3
0 -10 8 -15 11 -7 9 -9 -8 -7 -14 1 -21 6 -17 15 3 8 0 10 -8 5 -22 -14 -60
-15 -51 -2 4 7 3 9 -4 5 -5 -3 -13 0 -15 6 -4 10 -6 10 -6 1 -1 -17 -53 -17
-70 0 -10 10 -11 8 -5 -8 8 -19 7 -19 -18 -3 -26 17 -58 15 -58 -3 0 -4 -7 -6
-15 -3 -9 4 -15 0 -15 -7 0 -11 -2 -11 -10 1 -13 21 -70 22 -62 1 5 -14 3 -14
-11 -2 -9 7 -14 18 -11 23 4 6 -3 5 -15 -2 -17 -8 -26 -8 -36 0 -10 8 -15 8
-20 0 -4 -6 -13 -9 -21 -6 -8 3 -14 0 -14 -7 0 -8 -4 -6 -10 3 -5 8 -10 11
-10 6 0 -5 -8 -2 -17 5 -10 8 -14 9 -10 2 4 -6 2 -15 -4 -19 -6 -3 -15 -1 -19
7 -7 10 -11 10 -24 0 -13 -11 -17 -11 -22 3 -3 9 -14 16 -23 16 -13 0 -13 -2
-2 -9 9 -6 10 -11 2 -15 -6 -4 -14 0 -17 9 -5 12 -9 13 -20 4 -12 -10 -13 -8
-8 6 5 13 4 16 -4 11 -7 -4 -12 -14 -12 -23 0 -12 -4 -11 -17 5 -14 15 -23 18
-38 11 -19 -9 -19 -9 1 -6 12 3 21 -1 21 -8 0 -10 -7 -11 -23 -5 -12 5 -25 6
-30 2 -4 -4 -4 -2 0 5 10 18 -47 21 -61 3 -10 -13 -14 -12 -34 5 l-22 20 12
-23 c12 -23 12 -23 -12 -8 -13 9 -27 13 -30 9 -4 -3 -7 -1 -7 5 0 7 -4 12 -9
12 -5 0 -6 -10 -3 -23 5 -21 5 -21 -12 -4 -10 9 -23 14 -29 10 -17 -11 -36
-12 -41 -4 -6 9 -79 6 -95 -4 -7 -4 -15 -4 -18 -1 -4 3 0 6 8 6 12 0 12 2 0 9
-8 6 -24 6 -38 0 -16 -6 -23 -5 -23 4 0 6 -7 3 -15 -7 -9 -12 -15 -15 -15 -7
0 9 -8 11 -22 8 -12 -4 -27 -2 -34 4 -8 7 -14 6 -19 -1 -5 -8 -12 -5 -21 7
-13 16 -14 16 -8 0 4 -11 1 -17 -10 -17 -9 0 -16 6 -16 13 0 8 -3 8 -8 1 -9
-14 -62 -13 -62 1 0 5 -4 4 -8 -2 -6 -9 -17 -10 -42 -3 -22 6 -38 6 -46 -1 -8
-7 -14 -6 -20 2 -5 8 -3 10 7 4 8 -5 10 -4 6 0 -13 15 -36 14 -30 0 7 -20 -50
-14 -59 5 -5 12 -7 12 -7 -2 -1 -14 -5 -16 -26 -8 -16 6 -25 6 -25 0 0 -6 -5
-10 -11 -10 -5 0 -7 5 -4 10 3 6 2 10 -4 10 -5 0 -12 -6 -14 -12 -3 -8 -6 -6
-6 5 -1 19 -26 23 -37 5 -5 -7 -2 -8 7 -3 10 6 11 5 3 -4 -13 -14 -47 -3 -37
13 4 6 -1 5 -10 -3 -10 -8 -20 -11 -24 -8 -3 4 -13 1 -22 -6 -14 -11 -14 -10
-3 5 13 16 11 17 -17 15 -20 -1 -31 -7 -31 -17 0 -12 -2 -13 -9 -1 -5 7 -14
10 -20 7 -6 -4 -11 -1 -11 6 0 8 -3 9 -8 3 -8 -11 -53 -15 -47 -4 3 4 -4 9
-15 12 -11 3 -23 0 -27 -5 -3 -7 -1 -8 5 -4 7 4 12 2 12 -3 0 -15 -13 -14 -29
2 -11 10 -13 9 -8 -5 4 -12 2 -15 -8 -11 -8 3 -13 8 -11 12 3 4 -4 8 -15 8
-11 1 -17 -2 -14 -8 4 -5 1 -9 -4 -9 -6 0 -11 6 -11 14 0 8 -4 18 -10 21 -6 4
-7 -1 -3 -12 6 -16 5 -16 -10 -4 -10 7 -17 9 -17 3 0 -6 -11 -9 -25 -7 -14 1
-25 -2 -25 -7 0 -5 -9 -4 -19 2 -14 7 -21 6 -24 -3 -4 -9 -6 -8 -6 2 -1 11 -4
11 -17 0 -15 -12 -16 -11 -11 11 4 14 4 20 1 13 -3 -7 -12 -9 -20 -6 -8 3 -14
0 -14 -7 0 -6 6 -8 13 -4 6 4 8 3 4 -1 -11 -13 -38 -15 -30 -2 4 6 0 8 -10 4
-10 -4 -17 -1 -18 6 0 7 -4 3 -9 -8 -5 -11 -9 -14 -9 -6 -1 11 -4 11 -16 1
-10 -9 -15 -9 -15 -1 0 6 -12 11 -26 11 -16 0 -23 -4 -18 -12 4 -7 3 -8 -4 -4
-6 4 -8 14 -5 23 5 13 -1 11 -27 -7 -18 -13 -31 -19 -27 -13 10 16 -19 24 -48
13 -16 -6 -25 -6 -25 0 0 6 -5 10 -11 10 -5 0 -8 -3 -6 -7 8 -13 -69 -9 -85 4
-8 7 -18 10 -21 6 -4 -3 -7 0 -7 7 0 9 -7 6 -20 -8 -26 -28 -29 -27 -24 0 2
13 2 17 -2 10 -3 -6 -11 -9 -16 -6 -6 4 -8 2 -5 -3 4 -6 0 -13 -8 -17 -8 -3
-17 0 -21 6 -4 7 -3 8 4 4 7 -4 12 -2 12 3 0 14 -21 14 -54 1 -17 -6 -27 -6
-32 1 -3 6 -12 3 -20 -8 -13 -17 -14 -17 -7 2 6 19 6 19 -14 2 -19 -17 -21
-16 -49 5 -16 12 -23 15 -16 6 10 -13 10 -17 -3 -21 -8 -4 -14 -3 -14 1 1 4 1
14 0 22 -1 13 -3 13 -10 0 -6 -8 -7 -19 -3 -25 6 -11 -29 15 -39 28 -8 11 -20
7 -37 -10 -14 -14 -36 -18 -28 -5 2 4 -4 8 -14 8 -10 0 -16 -4 -13 -9 3 -5 -4
-6 -16 -2 -13 4 -29 1 -39 -6 -9 -7 -14 -10 -10 -5 11 13 -14 34 -34 28 -10
-2 -18 -8 -18 -12 0 -10 -20 -8 -38 4 -7 4 -27 4 -44 1 -26 -6 -30 -5 -25 9 6
15 4 15 -22 2 -16 -9 -31 -12 -35 -9 -3 4 -6 1 -6 -6 0 -7 -5 -9 -10 -6 -6 4
-8 10 -6 14 3 4 -11 8 -30 9 -21 1 -32 -3 -29 -8 4 -6 11 -8 16 -5 5 4 9 1 9
-4 0 -16 -16 -13 -33 4 -12 11 -16 12 -20 2 -3 -9 -8 -9 -20 2 -14 11 -17 11
-17 0 -1 -9 -4 -8 -11 4 -10 17 -12 17 -28 3 -13 -12 -30 -14 -67 -10 -27 3
-61 7 -75 8 -14 2 -32 6 -39 11 -10 6 -12 4 -6 -10 5 -14 4 -16 -7 -7 -8 7
-16 9 -19 7 -3 -3 -15 -7 -26 -10 -16 -3 -19 0 -15 13 5 16 5 16 -12 0 -16
-14 -21 -15 -39 -3 -19 12 -25 12 -49 0 -27 -14 -56 -11 -68 7 -8 12 -51 19
-44 7 4 -5 13 -9 21 -9 8 0 12 -5 9 -10 -4 -7 -11 -8 -18 -2 -7 6 -32 7 -59 3
-33 -6 -45 -4 -42 4 6 14 -26 16 -43 2 -9 -6 -13 -6 -13 1 0 6 -7 9 -15 6 -9
-4 -15 0 -15 7 0 11 -2 11 -9 -1 -6 -8 -7 -19 -3 -25 3 -5 -2 -4 -11 4 -9 7
-26 11 -37 8 -12 -3 -20 0 -20 7 0 7 -6 13 -14 13 -8 0 -12 -6 -9 -14 3 -7 0
-13 -6 -13 -6 0 -11 4 -11 9 0 5 -7 12 -16 15 -8 3 -12 2 -9 -4 9 -14 -19 -12
-34 2 -10 11 -11 9 -6 -7 6 -19 6 -19 -8 -2 -18 22 -33 22 -47 0 -10 -16 -11
-15 -6 5 3 15 0 22 -7 19 -7 -3 -11 -9 -10 -14 3 -13 -60 -11 -69 2 -5 7 -11
7 -15 0 -7 -10 -21 -11 -40 -5 -19 6 -39 5 -55 -3 -12 -5 -18 -4 -18 5 0 10
-2 10 -8 1 -6 -9 -17 -10 -41 -3 -22 6 -40 6 -53 -1 -15 -8 -24 -6 -41 8 -11
10 -17 12 -12 4 6 -11 4 -13 -10 -8 -9 4 -24 2 -31 -4 -11 -9 -14 -8 -14 2 0
12 -2 12 -9 0 -5 -8 -11 -9 -15 -3 -3 6 -18 9 -32 6 -19 -3 -24 -1 -18 8 4 7
4 10 -1 6 -4 -4 -15 -3 -22 4 -9 7 -17 8 -21 2 -4 -5 -16 -9 -27 -9 -11 0 -26
-4 -33 -9 -8 -6 -17 -5 -24 2 -8 8 -15 7 -25 -6 -8 -9 -12 -12 -9 -5 10 19
-17 22 -39 4 -18 -15 -19 -15 -7 1 19 25 -5 34 -30 11 -12 -10 -18 -13 -15 -7
4 7 0 14 -8 18 -8 3 -14 0 -12 -6 1 -5 -6 -12 -16 -13 -14 -3 -17 1 -13 13 5
14 4 14 -8 -1 -10 -14 -15 -15 -19 -5 -4 9 -8 10 -14 2 -12 -16 -41 -13 -48 4
-4 11 -8 12 -20 2 -8 -7 -12 -17 -9 -24 3 -6 -1 -3 -9 7 -15 18 -32 24 -22 7
3 -6 1 -10 -4 -10 -6 0 -11 4 -11 9 0 6 -9 8 -20 6 -11 -2 -20 1 -20 7 0 7 -7
3 -15 -8 -10 -12 -14 -14 -13 -4 2 9 -6 15 -24 15 -15 1 -25 -2 -22 -6 2 -4
-5 -9 -16 -12 -11 -3 -19 -2 -18 2 0 3 0 13 -1 21 -1 13 -2 13 -11 0 -5 -8
-14 -16 -20 -16 -5 -1 -13 -3 -17 -4 -16 -5 -58 2 -70 11 -7 7 -14 6 -19 -2
-4 -8 -3 -9 4 -5 7 4 12 2 12 -3 0 -18 -17 -12 -33 11 -13 19 -16 20 -16 6 -1
-15 -5 -16 -27 -7 -21 7 -31 6 -43 -5 -15 -14 -18 -13 -30 6 -13 21 -14 21
-27 3 -8 -10 -14 -13 -14 -7 0 16 -37 15 -43 0 -4 -10 -6 -10 -6 0 -1 6 -8 12
-17 12 -8 0 -13 -4 -10 -9 8 -12 -35 -2 -53 13 -12 9 -13 8 -8 -6 4 -12 2 -15
-9 -11 -7 3 -14 10 -14 17 0 6 -5 3 -11 -7 -8 -14 -14 -15 -30 -6 -11 6 -26 8
-34 6 -7 -3 -22 1 -34 9 -17 13 -20 13 -15 1 3 -10 -3 -16 -20 -19 -14 -3 -26
-1 -26 4 0 5 -5 6 -11 2 -6 -3 -15 0 -20 7 -5 8 -9 10 -9 4 0 -5 -18 -11 -39
-13 -29 -2 -43 2 -51 15 -10 15 -11 15 -6 1 2 -9 -2 -19 -10 -22 -7 -3 -13 -2
-13 2 3 21 -3 23 -22 6 -22 -19 -22 -19 -11 3 10 19 9 20 -8 16 -11 -3 -20 -9
-20 -12 0 -4 -7 -8 -14 -8 -12 0 -13 5 -4 21 11 20 10 20 -9 3 -23 -20 -60
-30 -68 -17 -3 5 -17 6 -31 4 -20 -4 -25 -1 -21 9 4 11 0 13 -14 10 -10 -3
-19 -9 -19 -14 0 -5 -5 -9 -11 -9 -5 0 -7 6 -4 13 4 6 0 4 -8 -5 -16 -20 -37
-24 -37 -7 0 5 5 7 10 4 6 -3 10 -1 10 4 0 14 -6 14 -31 1 -13 -8 -19 -7 -19
0 0 7 -6 10 -12 7 -7 -2 -12 -9 -11 -14 1 -6 -9 -8 -22 -5 -14 2 -25 8 -25 13
0 5 -11 7 -25 3 -17 -4 -25 -2 -25 7 0 7 -7 3 -16 -9 -15 -22 -17 -22 -30 -5
-7 10 -14 13 -14 7 0 -7 -9 -14 -19 -17 -14 -3 -19 0 -16 13 3 13 -2 16 -23
12 -15 -3 -21 -7 -14 -9 6 -3 12 -10 12 -16 -1 -7 -10 -1 -20 12 -16 18 -20
20 -20 7 0 -10 -4 -14 -10 -11 -21 13 -54 14 -68 3 -11 -10 -16 -9 -23 4 -6
11 -17 15 -32 12 -52 -13 -111 -13 -119 -1 -6 9 -10 8 -18 -3 -5 -8 -10 -12
-10 -8 0 4 -14 3 -31 -2 -26 -8 -32 -6 -36 10 -3 11 -11 16 -19 13 -8 -3 -11
-10 -7 -17 3 -6 1 -6 -8 1 -16 16 -33 17 -23 2 4 -8 1 -8 -12 -2 -11 5 -32 9
-49 8 -16 -1 -36 3 -44 9 -11 8 -13 8 -7 -1 5 -9 -1 -12 -23 -9 -17 2 -32 -2
-34 -8 -3 -6 -11 -3 -20 9 -15 19 -16 19 -23 2 -5 -15 -9 -16 -15 -5 -7 11 -9
11 -9 -1 0 -11 -3 -11 -17 0 -9 8 -14 9 -10 3 4 -7 -3 -10 -21 -7 -15 2 -33 5
-39 5 -7 1 -13 6 -13 11 0 5 -6 4 -13 -2 -8 -6 -17 -8 -20 -4 -4 3 -7 0 -7 -7
0 -9 -5 -7 -15 6 -15 19 -15 19 -30 0 -8 -11 -15 -14 -15 -8 0 16 -27 15 -33
0 -3 -8 -6 -7 -6 4 -1 9 -6 20 -11 23 -6 4 -9 2 -8 -3 2 -6 -1 -10 -7 -10 -5
0 -9 4 -7 10 1 5 -2 7 -8 3 -6 -3 -8 -11 -5 -16 4 -5 -3 -9 -14 -9 -10 0 -22
6 -24 12 -4 10 -8 9 -16 -2 -10 -13 -11 -13 -11 0 0 13 -1 13 -10 0 -6 -10
-10 -11 -10 -2 0 6 -4 12 -10 12 -5 0 -6 -7 -3 -17 4 -11 3 -14 -5 -9 -7 4
-12 14 -12 22 0 12 -4 12 -35 0 -20 -9 -35 -11 -35 -5 0 6 -8 5 -21 -2 -15 -8
-19 -8 -15 0 11 17 -5 13 -27 -6 -11 -10 -17 -12 -13 -5 7 12 -15 17 -58 12
-12 -1 -16 3 -11 10 6 9 2 9 -13 1 -30 -16 -52 -13 -53 7 -1 11 -4 9 -9 -8 -4
-14 -8 -20 -9 -14 -1 16 -37 24 -50 11 -6 -6 -11 -7 -11 -2 0 6 -5 3 -10 -5
-8 -12 -10 -12 -10 5 -1 19 -1 19 -15 2 -13 -18 -14 -18 -27 2 -7 12 -17 21
-22 21 -6 0 -5 -5 2 -12 18 -18 15 -33 -4 -17 -19 16 -67 19 -76 5 -5 -7 -8
-3 -8 9 0 17 -2 17 -10 5 -5 -8 -15 -15 -22 -15 -18 0 -37 18 -30 29 3 5 0 6
-7 2 -8 -5 -9 -12 -2 -20 7 -8 5 -12 -9 -13 -11 -1 -22 2 -25 7 -3 5 -12 7
-20 4 -7 -3 -23 0 -35 6 -20 11 -21 10 -16 -12 3 -12 3 -18 0 -11 -3 7 -11 10
-18 7 -8 -3 -16 2 -20 11 -3 10 -13 15 -20 12 -8 -3 -17 -2 -20 4 -2 5 -3 4
-1 -3 1 -7 8 -12 14 -10 6 1 11 -2 11 -7 0 -6 -9 -9 -20 -8 -11 1 -20 5 -20 9
0 4 -10 6 -22 4 -13 -3 -23 -5 -23 -6 0 -1 -10 -3 -22 -4 -18 -2 -20 0 -12 11
8 9 8 13 1 13 -6 0 -16 -8 -21 -18 -9 -14 -10 -15 -11 -1 0 9 -7 16 -15 16
-10 0 -14 -6 -10 -15 4 -12 3 -13 -10 -2 -8 7 -22 9 -31 6 -10 -4 -22 0 -29
10 -9 14 -14 14 -20 4 -5 -9 -4 -11 3 -6 8 5 10 1 5 -10 -5 -15 -7 -15 -15 0
-5 9 -20 16 -34 16 -14 0 -22 -4 -19 -10 10 -16 -11 -12 -25 5 -9 11 -16 12
-25 5 -11 -9 -25 -11 -85 -9 -14 0 -32 -1 -40 -2 -31 -5 -71 1 -66 10 3 4 -6
6 -19 3 -14 -2 -25 -8 -25 -13 0 -5 -5 -9 -11 -9 -5 0 -7 6 -3 12 6 10 5 10
-8 1 -8 -7 -18 -10 -22 -6 -11 11 -50 11 -63 1 -9 -7 -15 -5 -19 6 -8 21 -40
20 -54 -1 -11 -17 -11 -17 -6 -1 3 10 1 20 -4 23 -6 4 -10 2 -10 -4 0 -6 -7
-7 -17 -4 -9 4 -14 2 -11 -3 4 -5 -13 -9 -38 -9 -24 0 -44 3 -44 7 0 7 -20 5
-35 -4 -13 -8 -104 9 -120 22 -7 6 -17 3 -29 -12 -15 -17 -20 -18 -27 -7 -5 8
-9 10 -9 5 0 -5 -7 -3 -15 4 -8 7 -15 8 -15 3 0 -6 -12 -8 -27 -5 -26 5 -27 4
-13 -14 14 -18 14 -18 -3 -5 -10 8 -16 19 -14 25 3 7 -16 11 -57 10 -92 -3
-98 -3 -92 -13 7 -10 -20 -9 -30 2 -4 4 -13 2 -21 -4 -9 -9 -13 -8 -13 0 0 13
-22 10 -32 -4 -5 -6 -8 -3 -8 7 0 11 -6 15 -20 11 -11 -3 -20 -9 -20 -13 0 -4
-7 -11 -16 -14 -12 -5 -14 -1 -9 17 5 19 4 20 -7 7 -15 -18 -52 -15 -41 3 3 7
-3 4 -14 -6 -16 -14 -23 -15 -29 -6 -5 8 -3 10 6 4 8 -5 11 -4 6 3 -7 12 -37
5 -48 -12 -5 -7 -8 -4 -8 6 0 9 -5 20 -12 24 -7 5 -8 3 -3 -6 4 -7 2 -16 -5
-20 -16 -10 -42 -2 -35 10 3 5 1 12 -5 15 -6 4 -9 1 -8 -6 2 -7 -1 -13 -7 -14
-5 0 -16 -4 -24 -9 -11 -7 -13 -5 -9 5 4 10 -1 15 -13 15 -11 0 -19 -3 -19 -6
0 -4 -13 -7 -30 -7 -16 0 -27 4 -24 8 2 4 -10 7 -28 7 -18 -1 -27 -3 -20 -5
17 -6 15 -20 -3 -20 -8 0 -15 4 -15 9 0 5 -10 6 -21 3 -15 -5 -19 -4 -15 4 7
10 -19 16 -53 12 -8 -2 -10 2 -5 10 4 8 3 10 -5 5 -6 -4 -9 -12 -6 -17 8 -12
-28 -12 -43 1 -9 7 -9 7 -2 -2 18 -22 10 -29 -15 -12 -14 9 -25 13 -25 9 0 -4
-7 -2 -15 5 -13 10 -19 10 -35 -5 -19 -17 -20 -17 -20 -1 0 16 -1 16 -16 2
-20 -21 -24 -20 -19 2 2 11 -3 19 -10 19 -8 0 -12 -4 -9 -9 3 -4 1 -15 -4 -24
-8 -15 -10 -15 -15 0 -5 11 -3 15 5 10 7 -4 8 -3 4 5 -6 9 -11 9 -21 1 -9 -7
-15 -7 -19 -1 -4 5 -16 7 -29 5 -43 -11 -92 -12 -97 -3 -3 4 -18 2 -33 -6 -15
-8 -25 -10 -22 -5 3 6 -21 8 -60 6 -45 -3 -65 -1 -65 7 0 7 -4 6 -10 -3 -7
-11 -10 -12 -10 -2 0 10 -9 12 -32 6 -49 -10 -71 -11 -90 -2 -10 5 -18 3 -21
-5 -3 -6 -6 -3 -7 8 -1 19 -1 19 -14 2 -16 -21 -50 -12 -41 11 4 11 2 12 -7 5
-20 -15 -50 -24 -43 -13 3 6 1 10 -4 10 -6 0 -11 -7 -11 -16 0 -9 -5 -12 -12
-8 -7 5 -31 9 -53 11 -22 2 -46 6 -52 8 -17 6 -17 -12 0 -18 9 -4 9 -6 0 -6
-6 -1 -18 7 -25 17 -16 21 -59 25 -50 4 4 -12 -1 -13 -29 -8 -65 13 -109 15
-109 4 0 -5 -8 -7 -17 -4 -9 4 -20 1 -25 -6 -6 -10 -8 -10 -8 2 0 10 -11 15
-30 16 -16 1 -27 -3 -24 -7 3 -5 -2 -6 -10 -3 -9 3 -16 10 -16 15 0 6 -8 6
-17 2 -22 -10 -44 -10 -60 0 -8 5 -13 3 -13 -4 0 -8 -5 -7 -17 2 -13 11 -17
11 -21 1 -3 -10 -7 -10 -20 0 -13 11 -14 11 -7 -2 8 -13 6 -13 -8 -2 -11 10
-21 11 -34 4 -13 -8 -21 -6 -31 6 -7 10 -11 11 -7 4 8 -16 -27 -16 -44 0 -10
11 -11 10 -6 -3 7 -19 -10 -35 -20 -19 -4 6 -11 7 -17 4 -7 -5 -9 -2 -6 8 5
11 -1 15 -23 14 -32 -1 -35 -5 -16 -26 10 -12 9 -12 -5 -1 -10 7 -23 11 -30 9
-7 -3 -19 2 -25 11 -8 10 -15 12 -20 6 -9 -12 -23 -13 -40 -2 -8 5 -13 3 -13
-4 0 -6 -8 -9 -20 -6 -11 3 -20 1 -20 -4 0 -5 -11 -8 -25 -7 -14 1 -25 8 -25
14 0 17 -62 12 -78 -6 -12 -13 -13 -12 -7 5 3 11 3 16 -1 12 -4 -4 -13 -2 -21
5 -11 9 -13 8 -11 -2 4 -16 -49 -25 -67 -10 -9 8 -14 6 -19 -6 -5 -14 -9 -15
-19 -5 -9 9 -9 14 3 21 8 5 10 10 4 10 -6 0 -17 -7 -24 -14 -8 -11 -18 -12
-36 -6 -13 5 -24 6 -24 2 0 -4 -5 0 -10 8 -7 11 -10 12 -10 2 0 -10 -10 -12
-34 -9 -19 3 -40 0 -46 -7 -9 -8 -14 -8 -17 1 -3 8 -14 11 -29 7 -14 -4 -31
-1 -41 7 -12 10 -15 10 -9 2 4 -7 3 -13 -3 -13 -5 0 -17 -3 -27 -7 -12 -4 -15
-3 -10 5 5 8 2 10 -8 6 -10 -4 -18 1 -22 11 -6 15 -9 14 -20 -6 -7 -13 -13
-18 -14 -10 0 11 -3 11 -16 1 -8 -8 -14 -9 -13 -4 4 23 -2 26 -17 8 -8 -10
-12 -13 -8 -5 5 10 1 11 -16 6 -17 -5 -21 -4 -15 5 5 9 4 11 -3 6 -7 -4 -21
-9 -31 -11 -15 -3 -18 1 -14 12 5 13 3 13 -15 4 -11 -6 -24 -16 -27 -21 -3 -6
-12 -10 -18 -10 -7 0 -6 4 3 10 11 7 11 10 2 10 -7 0 -11 4 -8 9 4 5 -3 7 -13
4 -13 -3 -18 -11 -15 -21 5 -15 4 -15 -5 0 -7 11 -20 15 -36 12 -14 -2 -25 0
-25 6 0 6 -11 3 -25 -6 -19 -12 -25 -13 -25 -3 0 10 -3 10 -12 1 -9 -9 -15 -7
-25 6 -14 16 -14 16 -9 -3 5 -17 4 -18 -6 -5 -16 19 -50 19 -74 0 -10 -9 -15
-10 -10 -3 5 9 0 12 -18 11 -15 -1 -26 -7 -26 -13 0 -6 -3 -7 -8 0 -4 6 -18
11 -32 13 -20 2 -22 1 -10 -7 9 -6 10 -11 3 -11 -25 0 -42 12 -36 28 4 15 3
15 -6 2 -11 -16 -32 -20 -41 -9 -10 12 -60 20 -60 8 0 -6 -7 -8 -16 -5 -8 3
-12 2 -9 -4 3 -6 -1 -10 -9 -10 -8 0 -18 5 -22 12 -5 7 -3 8 6 3 9 -5 11 -4 6
4 -6 9 -11 9 -21 1 -21 -17 -77 -18 -103 -2 -20 13 -22 13 -16 -2 5 -12 2 -15
-10 -10 -9 3 -13 11 -9 17 4 6 1 7 -8 2 -7 -5 -22 -10 -32 -10 -10 -1 -23 -8
-28 -16 -8 -14 -9 -12 -9 19 0 4 4 7 9 7 5 0 13 3 17 7 3 4 -4 5 -17 3 -13 -3
-25 -9 -27 -14 -2 -6 -10 -7 -19 -4 -12 5 -14 3 -8 -8 7 -11 4 -11 -15 2 -26
16 -76 19 -98 5 -7 -4 -20 -2 -29 6 -11 8 -14 8 -10 1 5 -7 1 -12 -10 -11 -10
0 -39 -2 -65 -6 -27 -3 -50 -1 -53 5 -4 5 -11 7 -16 4 -5 -4 -9 -1 -9 6 0 7
-10 9 -25 7 -14 -3 -25 -2 -25 2 0 4 -6 7 -14 7 -8 0 -12 -6 -9 -14 3 -7 1
-13 -5 -13 -5 0 -13 7 -16 15 -4 12 -10 13 -25 6 -14 -8 -21 -7 -24 2 -4 9 -6
9 -6 -1 -1 -8 -6 -10 -13 -6 -10 6 -10 4 0 -8 11 -14 10 -16 -7 -11 -12 3 -21
10 -21 17 0 6 -4 5 -9 -3 -8 -12 -14 -12 -33 -3 l-23 12 25 -6 c20 -5 23 -4
13 7 -10 10 -17 10 -37 0 -17 -9 -29 -10 -43 -3 -12 7 -25 7 -34 1 -18 -11
-32 -12 -25 0 7 11 -21 8 -31 -4 -4 -4 -2 -5 6 0 10 6 12 4 6 -5 -6 -10 -11
-9 -22 5 -7 11 -13 15 -13 11 0 -5 -6 -4 -13 3 -10 8 -17 7 -25 -1 -6 -6 -41
-12 -77 -13 -54 -1 -65 1 -60 13 4 11 2 12 -7 5 -7 -6 -26 -11 -43 -11 -16 -1
-45 -4 -63 -6 -26 -4 -32 -2 -28 10 3 8 1 14 -4 14 -6 0 -10 -8 -11 -17 0 -14
-2 -13 -9 5 -5 12 -12 22 -15 22 -4 0 -4 -4 0 -9 3 -5 1 -12 -5 -16 -5 -3 -10
-1 -10 4 0 6 -5 11 -11 11 -5 0 -7 -6 -3 -13 6 -9 4 -9 -7 -2 -8 6 -23 10 -34
10 -11 0 -23 3 -26 8 -4 6 -10 0 -14 -12 l-6 -21 -19 22 c-11 13 -19 18 -20
13 0 -6 6 -17 13 -25 6 -8 2 -6 -10 3 -15 13 -23 15 -28 7 -6 -9 -9 -9 -15 0
-5 8 -12 6 -25 -7 -16 -15 -18 -16 -13 -1 4 10 1 19 -8 22 -8 3 -13 2 -10 -3
3 -5 -1 -14 -9 -21 -12 -10 -15 -9 -15 5 0 13 -3 15 -13 6 -10 -8 -17 -7 -27
2 -10 10 -12 9 -7 -6 6 -15 4 -16 -13 -7 -11 6 -20 7 -20 3 0 -4 -6 1 -13 11
-15 20 -46 18 -64 -4 -11 -13 -12 -13 -13 0 0 9 -3 11 -8 5 -11 -15 -83 -13
-77 3 7 18 -5 15 -22 -5 -8 -10 -12 -13 -9 -6 8 16 -7 24 -24 13 -9 -5 -20 -4
-29 3 -10 8 -13 8 -8 1 9 -15 -10 -22 -43 -17 -14 2 -33 4 -42 5 -13 2 -14 6
-6 15 8 10 7 12 -6 7 -9 -3 -16 -11 -16 -18 0 -6 -5 -4 -10 4 -5 9 -10 10 -10
3 0 -14 -62 -6 -71 9 -4 6 -10 2 -13 -10 -8 -24 -36 -24 -57 2 -12 15 -18 16
-24 6 -5 -8 -4 -11 2 -7 6 4 14 0 17 -9 6 -15 4 -15 -16 -2 -27 16 -102 25
-78 9 9 -7 10 -11 3 -11 -6 0 -15 5 -19 11 -4 8 -9 7 -15 -2 -8 -11 -11 -11
-20 4 -11 18 -39 24 -39 7 0 -7 -7 -7 -21 1 -15 8 -19 8 -15 0 4 -6 0 -11 -8
-11 -9 0 -16 6 -16 13 -1 6 -7 1 -15 -13 -12 -21 -14 -22 -15 -6 0 14 -3 16
-13 7 -10 -8 -17 -7 -25 1 -9 9 -12 9 -12 0 0 -7 -7 -12 -15 -12 -8 0 -15 6
-15 14 0 8 -4 18 -10 21 -6 3 -7 -1 -4 -9 6 -16 -7 -22 -20 -9 -3 4 -17 8 -29
10 -17 2 -19 1 -7 -6 8 -5 19 -7 25 -4 5 4 7 2 2 -2 -12 -14 -47 -13 -47 2 0
7 -4 13 -10 13 -5 0 -10 -4 -10 -8 0 -4 -13 -8 -30 -7 -16 0 -30 4 -30 8 0 5
-5 5 -10 2 -6 -3 -10 -1 -10 4 0 6 -4 11 -10 11 -5 0 -10 -8 -10 -17 0 -13 -2
-15 -8 -5 -5 7 -16 10 -25 6 -9 -3 -14 -11 -10 -17 3 -6 1 -7 -5 -3 -7 4 -12
15 -12 24 0 11 -3 13 -8 6 -10 -16 -44 -21 -62 -9 -19 12 -51 14 -44 3 4 -5
12 -7 20 -4 7 3 16 0 20 -7 4 -7 4 -9 0 -5 -5 4 -18 3 -31 -2 -16 -6 -27 -5
-34 4 -6 7 -10 15 -8 17 1 2 -4 -2 -10 -10 -8 -9 -13 -10 -13 -3 0 6 -9 9 -20
7 -11 -2 -22 0 -24 4 -6 10 -47 8 -63 -2 -9 -6 -11 -3 -7 10 5 16 4 16 -10 -1
-15 -19 -16 -19 -38 0 -15 12 -18 13 -10 3 10 -14 10 -18 -2 -22 -9 -4 -18 -2
-21 4 -4 5 -11 7 -16 4 -5 -4 -9 1 -9 9 0 10 -6 13 -16 9 -13 -5 -13 -8 -2
-15 9 -7 5 -8 -12 -4 -14 3 -31 6 -38 6 -7 0 -10 4 -7 10 3 5 1 10 -4 10 -10
0 -15 -14 -12 -33 1 -5 -3 -6 -9 -2 -6 3 -8 10 -5 14 2 5 -6 13 -19 19 -21 9
-23 8 -19 -9 3 -10 0 -19 -6 -19 -6 0 -11 5 -11 11 0 8 -4 8 -12 2 -16 -12
-49 -13 -42 -1 3 4 -2 8 -10 8 -9 0 -16 -5 -16 -12 0 -6 -9 -3 -20 7 -11 10
-20 14 -20 8 0 -5 -13 -9 -30 -8 -17 1 -30 -3 -30 -9 0 -6 -4 -5 -9 3 -6 9
-11 10 -15 2 -4 -6 -12 -9 -17 -5 -5 3 -6 10 -3 16 4 7 2 8 -5 4 -6 -4 -8 -12
-5 -18 5 -8 1 -9 -10 -5 -10 4 -20 7 -23 7 -3 0 1 7 8 17 13 15 12 15 -11 3
-35 -19 -63 -23 -55 -8 4 7 1 6 -7 -3 -12 -14 -15 -14 -33 3 -19 18 -20 18
-27 1 -3 -10 -7 -12 -7 -5 -1 7 -5 10 -11 7 -5 -3 -10 0 -10 7 0 10 -2 10 -9
-1 -10 -16 -81 -24 -81 -10 0 6 -9 5 -20 -1 -16 -8 -20 -8 -18 2 2 7 -3 12
-10 10 -7 -1 -21 -4 -32 -5 -11 -2 -23 -6 -26 -10 -4 -4 -14 -1 -22 6 -13 10
-14 9 -8 -1 7 -11 4 -11 -12 -1 -17 10 -23 10 -36 0 -9 -8 -16 -9 -16 -4 0 6
-12 8 -26 5 -20 -4 -25 -2 -19 8 6 9 3 10 -11 2 -11 -5 -28 -8 -39 -6 -11 1
-32 5 -47 7 -15 2 -25 0 -22 -4 3 -5 0 -9 -5 -9 -6 0 -11 6 -12 13 0 6 -4 3
-9 -8 -8 -19 -9 -19 -9 -1 -1 18 -2 18 -21 1 -18 -16 -20 -16 -26 -1 -3 9 -10
16 -16 16 -5 0 -6 -5 -2 -11 4 -7 -1 -9 -12 -7 -11 2 -18 10 -16 18 2 10 0 11
-10 3 -13 -11 -18 -13 -39 -13 -5 0 -8 -4 -5 -9 4 -5 -3 -7 -14 -4 -11 3 -17
9 -14 14 6 10 -27 6 -57 -6 -10 -4 -19 0 -22 9 -3 8 -14 13 -24 11 -10 -2 -22
-4 -26 -4 -5 -1 -6 -5 -2 -10 3 -5 1 -13 -5 -16 -6 -4 -10 -3 -9 2 4 22 -2 32
-16 27 -8 -4 -12 -11 -8 -18 4 -7 2 -7 -7 1 -9 9 -19 9 -33 2 -14 -8 -18 -8
-13 0 5 7 -7 11 -34 11 -24 0 -39 4 -35 10 3 5 -8 5 -26 -2 -25 -8 -33 -8 -40
3 -6 10 -9 7 -10 -11 0 -17 -3 -20 -7 -10 -8 17 -72 23 -72 6 0 -6 -5 -4 -10
4 -9 13 -11 13 -20 0 -8 -13 -11 -12 -25 5 -14 18 -14 18 -9 1 6 -16 5 -17
-15 -7 -12 7 -31 9 -41 6 -13 -4 -20 -2 -20 7 0 10 -3 9 -10 -2 -7 -11 -10
-12 -10 -2 0 10 -5 9 -17 -3 -15 -16 -18 -16 -28 -1 -15 19 -26 21 -19 3 3 -8
-3 -13 -16 -13 -11 0 -20 3 -20 7 0 4 -12 6 -28 4 -15 -2 -33 2 -39 7 -9 7
-14 6 -18 -4 -4 -10 -16 -14 -33 -11 -15 2 -32 5 -39 5 -7 1 -10 5 -7 10 3 5
-7 7 -23 5 -15 -3 -27 -10 -25 -16 1 -7 -8 -5 -23 5 -23 15 -25 15 -32 -2 -6
-17 -7 -17 -13 1 -6 16 -8 16 -21 3 -12 -14 -15 -14 -26 1 -11 15 -12 14 -13
-2 0 -10 -5 -15 -10 -12 -6 4 -8 10 -6 14 3 4 -7 8 -22 9 -21 1 -24 0 -12 -8
9 -6 10 -10 3 -10 -7 0 -17 8 -22 18 -10 16 -10 16 -11 0 0 -10 -4 -18 -10
-18 -5 0 -10 5 -10 12 0 6 -3 8 -7 5 -3 -4 -12 -2 -20 4 -10 9 -13 8 -13 -1 0
-8 -9 -11 -25 -8 -14 3 -25 1 -25 -4 0 -5 -9 -4 -20 2 -11 6 -20 7 -20 2 0 -4
-9 -8 -20 -8 -12 0 -19 5 -16 12 5 13 -22 13 -63 -1 -15 -4 -21 -4 -17 3 3 6
-9 10 -30 10 -21 0 -32 -3 -25 -8 9 -5 6 -9 -8 -13 -12 -3 -19 -1 -16 3 9 14
-38 16 -65 3 -20 -10 -27 -10 -35 0 -13 15 -60 23 -51 8 4 -6 3 -11 -3 -11 -5
0 -12 8 -14 18 -4 14 -5 14 -6 1 -1 -12 -8 -15 -27 -11 -19 3 -25 1 -20 -7 4
-6 5 -11 1 -11 -3 0 -10 10 -15 23 -7 17 -9 18 -9 5 -1 -20 -21 -25 -21 -5 0
7 -3 8 -8 2 -9 -12 -32 -13 -51 0 -10 5 -16 4 -19 -4 -3 -9 -8 -9 -20 1 -12
10 -14 10 -8 0 4 -6 2 -12 -3 -12 -6 0 -11 4 -11 9 0 5 -7 12 -16 15 -9 3 -12
2 -9 -4 4 -7 -5 -9 -25 -5 -19 3 -29 2 -26 -4 3 -5 -2 -8 -11 -6 -10 1 -17 8
-16 14 2 7 -5 7 -23 1 -33 -13 -47 -13 -39 1 5 7 -4 8 -27 4 -64 -12 -73 -12
-96 -2 -18 8 -26 8 -33 -4 -6 -10 -9 -10 -9 -1 0 6 -5 12 -11 12 -5 0 -8 -4
-4 -9 3 -5 1 -12 -5 -16 -5 -3 -10 0 -10 7 0 9 -14 13 -45 13 -25 0 -45 4 -45
10 0 5 -4 3 -9 -5 -6 -8 -7 -19 -5 -25 3 -5 0 -3 -8 5 -14 16 -88 24 -88 10 0
-5 -9 -6 -20 -3 -11 3 -18 9 -15 13 3 5 1 12 -5 15 -6 4 -9 1 -8 -7 2 -7 -4
-13 -12 -13 -8 0 -21 -4 -29 -9 -10 -6 -12 -5 -7 2 7 11 -18 17 -53 13 -8 -2
-10 2 -5 10 4 8 3 10 -5 5 -6 -4 -9 -12 -6 -17 4 -5 2 -9 -4 -9 -5 0 -12 8
-14 17 -4 16 -5 16 -6 2 0 -9 -8 -19 -16 -23 -13 -5 -14 -2 -4 17 11 20 11 21
-4 9 -9 -8 -21 -11 -27 -7 -5 3 -10 2 -10 -2 0 -5 -9 -9 -20 -9 -11 0 -20 5
-20 10 0 6 -5 5 -11 -1 -7 -7 -21 -8 -39 -3 -15 4 -33 4 -40 0 -7 -5 -22 -3
-32 3 -15 10 -21 9 -28 -3 -7 -11 -10 -11 -10 -2 0 7 -4 11 -9 7 -5 -3 -12 3
-14 12 -4 15 -5 15 -6 -2 -1 -13 -8 -21 -20 -21 -11 0 -17 4 -15 8 6 10 6 10
-33 -1 -23 -7 -37 -5 -52 6 -12 8 -27 12 -34 10 -7 -3 -5 -6 5 -6 12 -1 15 -6
11 -17 -4 -12 -9 -10 -24 12 -14 22 -19 25 -24 13 -7 -18 -37 -21 -47 -5 -5 8
-8 7 -8 -2 0 -12 -51 -9 -73 5 -6 4 -7 1 -2 -7 6 -10 1 -11 -21 -6 -16 4 -32
13 -36 19 -5 8 -8 6 -8 -5 0 -9 -4 -20 -10 -23 -5 -3 -8 0 -5 7 3 8 -4 14 -20
14 -14 1 -22 -2 -19 -7 9 -15 -8 -10 -28 8 -17 15 -18 15 -18 -2 0 -15 -2 -16
-17 -4 -20 17 -16 17 -38 -1 -17 -14 -18 -13 -12 3 7 20 -13 23 -31 5 -9 -9
-12 -9 -12 1 0 9 -5 8 -16 -4 -9 -9 -19 -13 -22 -10 -4 3 0 11 8 16 12 8 9 9
-10 7 -14 -2 -28 -7 -32 -13 -4 -6 -8 -2 -8 8 0 9 -5 17 -11 17 -5 0 -8 -3 -6
-7 6 -9 -13 -27 -33 -31 -11 -3 -11 0 0 12 10 13 10 16 -4 16 -9 0 -16 -4 -16
-8 0 -4 -19 -7 -42 -6 -24 1 -52 -3 -63 -9 -18 -9 -19 -9 -6 7 8 9 11 19 7 23
-3 3 -6 1 -6 -6 0 -7 -10 -10 -25 -7 -16 3 -28 -1 -35 -12 -8 -13 -10 -14 -8
-2 2 9 -1 15 -7 15 -5 0 -9 -4 -7 -8 1 -4 -9 0 -23 9 -20 13 -29 14 -38 5 -9
-10 -8 -11 4 -6 10 4 20 2 24 -4 4 -7 0 -8 -11 -4 -12 4 -15 3 -10 -5 10 -17
0 -15 -19 5 -13 13 -21 14 -34 6 -11 -7 -23 -8 -32 -2 -12 7 -12 9 0 9 8 0 11
3 8 7 -4 4 -21 -3 -37 -16 -18 -13 -36 -19 -43 -14 -6 4 -18 8 -26 10 -8 1
-17 6 -20 12 -7 10 -49 10 -67 -2 -14 -8 -39 -3 -58 12 -14 12 -16 11 -10 -5
6 -16 5 -17 -7 -7 -15 15 -33 17 -25 4 7 -10 -54 -9 -71 2 -7 5 -18 5 -23 2
-6 -4 -29 -8 -53 -10 -23 -1 -36 -1 -29 2 6 3 12 9 12 13 0 5 -16 2 -35 -5
-22 -10 -42 -12 -57 -7 -13 5 -44 8 -70 7 -26 0 -44 3 -42 7 3 4 -2 5 -10 2
-9 -3 -14 -9 -11 -13 2 -4 -2 -8 -10 -8 -8 0 -15 3 -15 7 0 4 -10 12 -23 17
-19 9 -25 8 -33 -5 -7 -11 -16 -13 -30 -8 -10 5 -38 9 -61 10 -35 1 -40 -1
-30 -14 8 -10 3 -9 -17 4 -16 10 -25 13 -22 7 10 -15 -7 -14 -23 1 -11 10 -14
10 -18 1 -3 -10 -8 -9 -20 2 -17 18 -37 20 -27 4 5 -8 -3 -10 -25 -7 -18 3
-34 1 -37 -4 -3 -4 -12 -8 -20 -8 -8 0 -13 4 -10 8 3 5 -1 9 -9 9 -8 0 -15 -3
-15 -7 0 -13 -29 -7 -34 7 -5 11 -10 11 -27 2 -12 -6 -24 -7 -28 -3 -11 16
-33 15 -52 -2 -15 -14 -22 -14 -48 -3 -16 7 -27 18 -24 24 4 5 -6 -1 -20 -14
-19 -17 -27 -20 -27 -10 0 12 -2 11 -10 -1 -8 -13 -10 -12 -10 3 0 9 -4 17
-10 17 -5 0 -10 -5 -10 -11 0 -8 -5 -8 -15 1 -11 9 -15 9 -15 1 0 -7 -5 -9
-10 -6 -6 4 -7 12 -4 18 5 9 4 9 -6 0 -7 -6 -20 -9 -29 -6 -14 4 -14 3 -1 -6
13 -9 13 -11 -2 -11 -10 0 -18 5 -18 10 0 7 -7 7 -21 -1 -15 -8 -19 -8 -15 0
4 6 0 11 -8 11 -9 0 -13 -6 -10 -14 4 -11 0 -13 -15 -9 -11 3 -18 9 -15 14 3
5 1 9 -4 9 -6 0 -13 -7 -16 -16 -3 -8 -10 -12 -16 -9 -6 4 -8 11 -5 16 4 5 -5
5 -20 -1 -37 -14 -61 -12 -79 5 -19 19 -27 19 -20 0 8 -20 -6 -19 -23 3 -11
13 -14 13 -10 2 3 -11 -3 -16 -19 -18 -13 -1 -24 3 -24 8 0 5 -7 6 -17 3 -12
-5 -14 -3 -8 8 8 12 6 12 -8 0 -15 -12 -19 -12 -30 0 -7 8 -11 12 -10 10 2 -2
-5 -10 -15 -17 -12 -8 -21 -9 -29 -2 -7 6 -25 8 -40 5 -16 -4 -22 -4 -15 -1 6
3 12 10 12 15 0 6 -4 7 -10 4 -5 -3 -26 -8 -46 -9 -19 -2 -38 -7 -41 -10 -3
-3 -13 0 -21 7 -10 8 -13 8 -9 1 4 -7 0 -14 -8 -18 -8 -3 -17 0 -21 6 -5 7 -2
8 6 3 9 -5 11 -4 6 4 -4 7 -15 11 -24 9 -10 -1 -23 1 -31 6 -10 6 -12 5 -7 -2
4 -7 2 -12 -3 -12 -6 0 -11 6 -11 13 0 8 -3 8 -8 1 -10 -14 -42 -26 -42 -15 0
5 -10 7 -22 3 -21 -5 -22 -4 -8 13 15 18 14 18 -10 2 -26 -18 -45 -22 -36 -8
3 4 -6 6 -19 3 -14 -2 -22 -8 -19 -13 3 -5 1 -9 -4 -9 -6 0 -12 6 -15 13 -6
16 -68 11 -79 -7 -5 -7 -8 -4 -8 7 0 10 -4 15 -10 12 -5 -3 -10 -2 -10 2 0 5
-12 8 -27 7 -42 -2 -43 -3 -43 -20 0 -8 -4 -13 -10 -9 -5 3 -7 13 -4 23 4 10
3 13 -3 6 -12 -16 -43 -25 -43 -13 0 6 -7 9 -15 5 -8 -3 -15 -1 -15 5 0 6 -5
7 -10 4 -6 -4 -8 -9 -6 -13 2 -4 -11 -8 -30 -9 -24 -1 -32 2 -27 10 5 9 3 9
-8 0 -9 -7 -20 -8 -28 -3 -8 4 -20 6 -28 3 -7 -3 -13 0 -13 6 0 8 -6 9 -17 3
-10 -5 -24 -7 -30 -5 -7 3 -13 0 -13 -6 0 -6 -8 -11 -17 -11 -15 0 -16 2 -3
10 12 8 11 10 -7 10 -12 0 -25 -5 -28 -10 -4 -6 -11 -7 -17 -4 -7 4 -6 9 2 14
6 4 -18 6 -54 5 -36 -1 -69 -4 -72 -8 -4 -4 -13 1 -21 11 -8 9 -12 11 -8 5 11
-22 -5 -36 -23 -21 -13 11 -14 11 -7 -1 6 -10 4 -12 -4 -7 -7 5 -10 14 -7 22
4 11 1 12 -12 6 -9 -5 -23 -7 -31 -4 -8 3 -11 0 -7 -6 3 -6 1 -14 -5 -18 -8
-5 -9 -3 -4 6 6 10 3 12 -14 7 -18 -4 -21 -2 -17 10 5 13 4 14 -9 3 -12 -10
-15 -10 -15 1 0 9 -3 10 -8 3 -4 -6 -23 -11 -43 -11 -19 0 -41 -3 -47 -7 -7
-4 -12 -4 -12 0 0 3 -8 0 -17 -7 -15 -11 -16 -11 -5 1 6 8 12 18 12 23 0 4 -6
5 -12 0 -7 -4 -24 -6 -37 -4 -17 2 -21 -1 -15 -11 6 -10 4 -10 -9 1 -14 11
-17 11 -17 0 0 -11 -2 -11 -10 1 -9 13 -11 13 -20 0 -6 -9 -10 -10 -10 -3 0
11 -42 9 -62 -3 -4 -3 -8 0 -8 6 0 6 -10 10 -22 8 -13 -2 -29 4 -36 12 -10 11
-12 11 -6 1 5 -11 3 -13 -10 -8 -9 4 -14 3 -11 -2 11 -19 -14 -20 -36 -2 -22
17 -24 17 -36 2 -9 -12 -12 -13 -13 -2 0 11 -3 11 -17 0 -10 -8 -14 -9 -10 -2
4 6 3 14 -3 18 -5 3 -10 -1 -10 -9 0 -9 -5 -16 -11 -16 -5 0 -8 4 -5 9 7 10
-49 9 -59 -1 -10 -9 -36 2 -29 13 3 5 1 9 -4 9 -6 0 -12 -7 -16 -15 -3 -8 -13
-15 -23 -15 -15 0 -16 2 -3 10 11 7 11 10 2 10 -7 0 -10 6 -7 13 4 6 -2 2 -13
-10 -15 -17 -21 -19 -25 -9 -6 14 -67 10 -67 -5 0 -5 -4 -9 -10 -9 -5 0 -10 8
-10 18 0 11 -3 13 -8 6 -4 -7 -24 -11 -45 -9 -21 1 -40 -2 -43 -7 -3 -4 -10
-5 -16 -2 -6 4 -5 9 3 15 10 6 7 8 -9 6 -12 0 -22 -5 -22 -9 0 -4 -5 -8 -11
-8 -5 0 -8 3 -6 7 3 5 -6 9 -19 9 -13 1 -21 -2 -18 -7 8 -13 -10 -11 -24 3 -6
6 -21 12 -33 13 -19 2 -20 0 -6 -10 9 -7 14 -15 10 -18 -3 -4 -12 -2 -20 4 -7
7 -21 13 -31 14 -9 1 -25 5 -36 10 -12 5 -21 3 -26 -5 -4 -7 -30 -14 -59 -15
-27 -1 -48 2 -45 7 3 4 9 6 14 3 5 -3 11 -1 15 4 3 6 -4 8 -17 5 -56 -10 -69
-13 -78 -19 -6 -3 -10 1 -10 9 0 18 -16 21 -25 6 -4 -7 -14 -6 -28 2 -20 10
-21 10 -8 -6 13 -16 12 -16 -12 -5 -20 9 -30 9 -41 0 -11 -9 -16 -9 -21 0 -4
6 -19 9 -36 5 -19 -4 -29 -1 -29 7 0 6 -11 13 -25 13 -21 2 -24 -1 -14 -12 6
-8 16 -11 22 -7 6 3 7 1 3 -6 -6 -8 -12 -9 -20 -2 -7 6 -16 8 -19 4 -4 -3 -7
2 -7 13 0 16 -2 17 -10 4 -9 -13 -10 -13 -10 0 0 12 -2 12 -9 2 -4 -7 -12 -12
-17 -11 -5 1 -11 0 -14 -1 -13 -6 -119 -5 -109 1 8 4 7 8 -2 11 -8 3 -23 -2
-33 -11 -18 -15 -19 -15 -13 1 9 24 -6 30 -29 12 -19 -15 -19 -15 1 -9 14 4
17 3 9 -5 -7 -7 -21 -6 -48 5 -21 9 -35 11 -31 6 3 -6 4 -11 1 -11 -2 0 -12
-3 -22 -7 -11 -4 -15 -3 -11 4 4 6 0 13 -8 17 -8 3 -15 1 -15 -4 0 -16 -32
-11 -52 7 -13 12 -18 13 -16 4 2 -7 -3 -16 -10 -18 -7 -3 -12 -1 -11 4 4 22
-3 25 -20 9 -12 -11 -21 -14 -26 -7 -3 6 -13 11 -21 11 -8 0 -13 -4 -9 -9 3
-5 0 -13 -6 -17 -8 -4 -9 -3 -5 4 5 8 -3 12 -24 12 -17 0 -29 -4 -26 -8 7 -11
-31 -8 -41 3 -5 4 -3 5 4 1 6 -3 14 -2 17 3 6 10 -71 8 -80 -2 -10 -10 -34 5
-28 17 3 6 -1 3 -9 -7 -18 -22 -38 -22 -30 1 6 16 5 16 -14 -1 -24 -21 -43
-22 -43 -1 0 8 -5 12 -10 9 -6 -4 -8 -11 -5 -16 4 -5 1 -9 -4 -9 -6 0 -11 7
-11 15 0 11 -6 12 -22 6 -13 -5 -32 -5 -43 -1 -11 4 -26 3 -34 -4 -11 -8 -13
-8 -7 1 5 9 2 11 -8 7 -9 -3 -16 -10 -16 -16 0 -5 -5 -6 -10 -3 -8 5 -7 12 2
23 12 14 10 14 -10 3 -13 -7 -30 -10 -38 -7 -8 3 -13 2 -10 -2 3 -4 -19 -8
-49 -8 -30 1 -51 5 -47 10 3 5 -2 6 -11 3 -40 -16 -52 -19 -39 -9 11 7 9 10
-7 15 -12 3 -19 2 -16 -3 3 -4 -2 -10 -10 -14 -8 -3 -17 -1 -20 4 -4 6 -14 6
-27 -1 -18 -10 -20 -9 -15 5 7 18 -8 22 -19 5 -4 -8 -9 -7 -15 2 -7 12 -9 12
-9 0 0 -9 -4 -10 -12 -4 -7 5 -19 8 -25 7 -7 -1 -19 -2 -25 -3 -10 -1 -9 -4 1
-10 10 -7 7 -9 -12 -8 -14 1 -24 4 -22 8 2 3 -9 10 -24 16 -21 8 -28 7 -28 -3
0 -7 7 -10 16 -7 12 5 13 3 5 -6 -8 -9 -18 -10 -30 -3 -11 5 -25 7 -33 4 -10
-3 -11 0 -5 9 6 11 5 12 -7 2 -12 -10 -18 -10 -29 0 -10 10 -11 9 -5 -2 6 -11
4 -13 -8 -8 -10 3 -17 2 -17 -4 0 -6 -10 -3 -22 5 -15 11 -26 12 -40 5 -13 -7
-18 -6 -18 2 0 7 -3 9 -7 6 -3 -4 -13 -1 -21 6 -13 10 -15 9 -9 -7 6 -15 5
-17 -7 -7 -11 9 -15 9 -18 0 -3 -8 -9 -9 -19 -4 -8 5 -22 8 -31 7 -10 -2 -18
2 -18 7 0 6 -7 11 -15 11 -8 0 -15 -7 -15 -15 0 -8 -7 -15 -16 -15 -8 0 -13 4
-10 9 3 5 -1 11 -9 14 -9 4 -12 1 -9 -7 3 -8 0 -17 -7 -22 -7 -4 -10 -3 -5 4
3 6 1 14 -5 18 -6 3 -14 1 -18 -5 -5 -8 -12 -7 -26 3 -17 12 -23 11 -44 -3
-15 -9 -22 -11 -18 -3 5 7 3 12 -7 12 -8 0 -18 -4 -21 -10 -3 -5 -11 -10 -17
-10 -7 0 -7 5 1 14 9 11 8 14 -6 12 -10 0 -21 -5 -25 -11 -5 -6 -8 -6 -8 1 0
6 -6 11 -14 11 -8 0 -12 -6 -10 -12 3 -6 -2 -12 -11 -12 -8 0 -15 7 -15 15 0
12 -3 12 -15 2 -11 -9 -15 -10 -15 -1 0 8 -8 10 -21 6 -16 -6 -20 -4 -14 6 5
8 -2 5 -15 -6 l-23 -20 8 25 c7 24 7 24 -9 5 -8 -11 -16 -17 -16 -13 0 4 -14
3 -30 -2 -19 -5 -28 -5 -25 1 4 5 1 9 -4 9 -6 0 -11 -6 -11 -12 0 -9 -3 -9 -9
1 -11 18 -48 25 -56 11 -4 -6 1 -7 12 -3 10 3 15 3 11 -2 -12 -13 -58 -14 -58
-2 0 8 -3 8 -8 2 -9 -13 -92 -13 -92 0 0 6 -5 3 -10 -5 -5 -8 -10 -10 -10 -3
0 7 -9 9 -22 5 -21 -5 -22 -4 -8 14 14 17 13 18 -1 7 -9 -7 -19 -10 -23 -6 -4
4 -4 -1 0 -12 6 -16 5 -18 -7 -9 -8 6 -22 10 -31 9 -10 -2 -18 1 -18 6 0 5 -5
9 -11 9 -5 0 -8 -4 -5 -8 2 -4 -4 -8 -14 -8 -10 0 -17 3 -15 7 5 7 -40 3 -54
-5 -5 -3 -11 -1 -13 6 -3 8 -12 9 -35 1 -23 -8 -34 -8 -42 0 -9 9 -14 8 -21
-3 -9 -14 -14 -7 -11 13 1 5 -3 6 -9 2 -6 -3 -8 -10 -6 -14 3 -4 -10 -7 -29
-7 -24 1 -35 6 -36 16 0 10 -2 11 -6 2 -2 -6 -9 -9 -14 -6 -6 3 -16 0 -24 -6
-15 -13 -39 -4 -30 11 3 5 -1 6 -9 3 -9 -3 -13 -10 -10 -15 7 -12 -3 -11 -27
2 -11 5 -16 15 -13 21 4 7 3 8 -5 4 -6 -4 -8 -13 -4 -19 4 -7 -6 -4 -21 7 -16
10 -26 14 -23 9 3 -5 -10 -13 -29 -19 -34 -11 -34 -11 -17 10 10 12 11 15 3 9
-17 -15 -44 -17 -35 -3 3 6 -1 10 -10 10 -9 0 -14 -3 -12 -8 3 -4 -1 -13 -9
-20 -12 -11 -16 -9 -22 8 l-8 21 -27 -21 c-15 -12 -26 -18 -25 -13 3 7 -7 15
-14 12 -23 -7 -49 -2 -54 10 -5 14 -7 13 -14 -4 -8 -19 -9 -19 -9 -1 -1 14 -4
16 -14 7 -10 -8 -17 -7 -25 1 -9 9 -12 9 -12 0 0 -7 -5 -12 -11 -12 -5 0 -7 5
-4 10 10 16 -18 7 -33 -10 -9 -12 -12 -12 -10 -1 2 7 -3 16 -11 19 -8 3 -11 0
-7 -7 9 -14 -7 -14 -21 0 -9 9 -18 8 -37 -4 -20 -13 -26 -14 -35 -3 -6 7 -7
17 -3 21 4 5 -4 1 -18 -8 -26 -18 -44 -22 -36 -9 8 13 -30 8 -46 -6 -11 -9
-17 -7 -28 8 -13 18 -16 18 -37 5 -25 -17 -37 -19 -29 -7 2 4 -6 8 -19 8 -13
0 -21 -4 -19 -8 3 -4 -2 -8 -10 -8 -9 0 -16 5 -16 11 0 5 -4 7 -10 4 -5 -3
-10 0 -10 7 0 9 -3 9 -8 2 -9 -13 -52 -25 -52 -14 0 4 -7 11 -16 14 -12 4 -15
2 -10 -9 7 -19 -14 -15 -32 5 -8 8 -11 10 -8 3 10 -19 -11 -25 -28 -7 -15 14
-16 14 -16 0 0 -19 -16 -21 -23 -3 -4 9 -8 9 -15 -1 -7 -11 -10 -11 -15 3 -5
13 -11 14 -27 5 -13 -7 -20 -7 -20 0 0 5 -8 10 -17 10 -13 0 -14 -3 -5 -8 7
-5 -6 -7 -30 -6 -24 0 -43 2 -43 3 0 2 -18 4 -40 5 -24 2 -50 -4 -65 -13 -15
-10 -21 -11 -16 -3 6 9 1 11 -18 8 -14 -3 -31 -8 -37 -12 -8 -4 -9 -3 -5 4 4
8 -1 12 -13 13 -12 1 -27 2 -33 3 -7 1 -19 -3 -27 -8 -11 -8 -13 -8 -8 0 4 7
-5 11 -26 12 -17 0 -33 6 -35 12 -3 7 -10 4 -19 -7 -13 -16 -14 -16 -9 -1 3
12 1 15 -9 12 -8 -3 -11 -12 -8 -20 6 -17 -8 -18 -26 -1 -11 9 -12 9 -7 0 5
-9 2 -11 -8 -7 -9 3 -14 9 -11 13 8 14 -40 6 -53 -9 -12 -13 -13 -13 -8 3 6
18 -9 24 -19 7 -4 -6 -15 -6 -31 0 -17 7 -23 7 -19 0 3 -6 3 -10 -2 -11 -4 0
-19 -2 -32 -5 -19 -3 -22 -2 -12 10 9 11 8 15 -3 19 -8 3 -16 1 -18 -5 -2 -6
-21 -13 -41 -14 -22 -2 -35 1 -32 6 4 6 -6 10 -20 10 -14 0 -24 -4 -21 -9 3
-5 -1 -11 -9 -15 -8 -3 -17 -1 -21 5 -4 6 -11 6 -20 -2 -8 -7 -14 -7 -14 -1 0
16 26 22 39 9 9 -9 11 -8 6 6 -9 21 -9 21 -52 0 -34 -16 -36 -16 -49 2 -8 10
-14 13 -14 7 0 -10 -5 -10 -20 -2 -16 9 -18 8 -14 -5 5 -13 1 -15 -21 -11 -15
3 -33 10 -40 16 -8 7 -18 9 -24 6 -5 -3 -12 0 -15 6 -3 7 -3 3 0 -9 6 -24 -11
-33 -19 -10 -3 9 -9 9 -26 -1 -12 -7 -21 -8 -21 -2 0 5 -7 10 -15 10 -8 0 -15
-5 -15 -11 0 -6 -7 -3 -16 5 -20 21 -31 20 -37 -1 -4 -16 -5 -16 -6 1 -1 12
-6 16 -17 12 -9 -4 -23 -1 -30 5 -11 9 -14 8 -14 -5 0 -9 8 -16 17 -16 9 0 14
-3 10 -6 -3 -4 -14 -3 -24 1 -10 5 -22 7 -26 6 -5 -1 -6 2 -3 7 8 13 -57 9
-66 -3 -5 -6 -8 -5 -8 4 0 7 -6 11 -15 7 -8 -3 -15 -1 -15 5 0 6 -6 6 -18 0
-13 -7 -23 -6 -31 2 -7 7 -12 8 -11 2 5 -21 -1 -23 -27 -10 -15 8 -30 11 -33
7 -7 -10 -21 -9 -39 2 -11 7 -13 5 -7 -9 5 -13 3 -15 -6 -8 -15 11 -28 11 -47
-1 -11 -7 -13 -5 -8 7 3 10 2 17 -3 17 -6 0 -10 -7 -10 -17 0 -14 -2 -14 -20
2 -18 17 -20 17 -14 2 5 -14 2 -16 -12 -11 -11 4 -25 12 -33 18 -11 8 -15 8
-18 -1 -6 -18 -23 -16 -23 2 0 15 -20 17 -31 2 -3 -4 -17 -3 -31 2 -27 10 -38
6 -38 -13 0 -6 5 -4 10 4 6 9 10 10 10 3 0 -20 -15 -23 -45 -7 -21 11 -30 12
-36 3 -4 -8 -10 -5 -18 7 -6 11 -11 13 -11 6 0 -9 -5 -10 -19 -2 -14 7 -22 7
-27 -2 -4 -6 -3 -8 3 -5 5 3 10 0 10 -8 0 -11 -4 -11 -22 1 -16 11 -29 12 -47
5 -19 -7 -31 -6 -47 5 -11 8 -21 11 -21 6 0 -19 -44 -22 -63 -4 -13 11 -17 12
-15 3 2 -7 -3 -16 -9 -18 -7 -3 -13 0 -13 6 0 5 -12 8 -26 5 -15 -3 -23 -1
-20 5 4 6 -3 8 -15 6 -13 -3 -26 -10 -31 -17 -5 -9 -8 -9 -8 -2 0 7 -11 14
-25 16 -13 3 -22 1 -19 -3 3 -5 -4 -9 -15 -9 -13 0 -21 7 -21 17 0 15 -2 14
-15 -3 -8 -10 -15 -14 -15 -8 0 6 -6 11 -14 11 -8 0 -12 -6 -8 -15 3 -10 1
-13 -6 -8 -7 4 -12 14 -12 21 0 16 -30 9 -42 -9 -5 -8 -8 -7 -8 1 0 9 -7 10
-25 3 -19 -7 -27 -6 -34 8 -10 16 -10 16 -11 0 0 -23 -9 -23 -27 0 -8 9 -12
12 -9 5 4 -6 2 -14 -4 -18 -6 -3 -13 0 -16 8 -6 16 -44 11 -44 -5 0 -6 -7 -4
-17 3 -18 15 -50 13 -71 -4 -10 -8 -16 -7 -23 4 -6 10 -9 10 -9 2 0 -7 -4 -13
-9 -13 -5 0 -7 10 -4 22 3 13 1 19 -4 13 -4 -6 -25 -16 -46 -22 -30 -9 -36 -9
-28 1 7 8 3 12 -15 14 -13 1 -24 -3 -24 -9 0 -8 -4 -8 -14 0 -9 7 -17 8 -20 2
-3 -5 -14 -8 -24 -6 -9 2 -23 4 -30 4 -7 1 -10 5 -7 11 3 5 0 7 -9 4 -8 -3
-17 -13 -19 -22 -4 -15 -5 -14 -6 1 -1 11 -6 15 -12 11 -6 -3 -15 0 -20 7 -7
11 -9 10 -9 -3 0 -10 -4 -18 -10 -18 -5 0 -10 6 -10 13 0 6 -11 13 -25 13 -14
1 -23 -2 -20 -6 3 -5 1 -11 -5 -15 -5 -3 -10 2 -10 12 0 15 -2 16 -10 3 -9
-13 -10 -13 -10 0 0 13 -2 13 -9 1 -8 -12 -12 -13 -25 -1 -9 7 -19 10 -23 6
-3 -3 -1 -6 6 -6 7 0 10 -4 6 -10 -3 -5 -12 -7 -20 -4 -8 4 -12 11 -9 16 4 6
1 8 -7 6 -8 -3 -13 -12 -11 -19 1 -9 -3 -7 -12 4 -9 12 -16 14 -21 7 -4 -7
-12 -7 -23 -1 -12 7 -22 5 -36 -7 -18 -16 -18 -16 -12 6 9 26 5 27 -36 6 -29
-15 -30 -15 -24 1 5 14 4 16 -7 7 -8 -7 -17 -9 -21 -4 -4 4 -12 -1 -17 -11 -9
-15 -12 -16 -25 -2 -17 17 -54 20 -54 6 0 -12 -37 -6 -55 9 -9 7 -16 6 -25 -5
-10 -12 -15 -13 -21 -4 -6 10 -11 10 -23 0 -13 -11 -17 -10 -22 4 -4 9 -10 13
-13 8 -12 -16 -71 -32 -78 -21 -3 7 -1 8 5 4 8 -5 10 -1 5 9 -3 9 -9 13 -12 7
-8 -12 -53 -23 -45 -11 3 5 -2 9 -11 9 -9 0 -14 -4 -11 -8 3 -5 -5 -8 -17 -8
-12 1 -26 7 -30 14 -7 11 -13 10 -30 -5 -17 -15 -19 -15 -15 -2 5 13 -1 16
-36 15 -23 -1 -47 -5 -53 -9 -14 -9 -45 2 -37 14 3 5 -7 4 -23 -2 -19 -7 -29
-7 -31 0 -3 8 -10 8 -24 0 -11 -6 -26 -8 -34 -5 -9 4 -12 2 -8 -5 9 -15 -38 0
-48 15 -7 10 -12 1 -9 -16 0 -5 -4 -8 -9 -8 -6 0 -10 5 -10 10 0 11 -41 7 -61
-6 -7 -4 -9 -3 -6 3 4 6 -2 13 -13 16 -11 3 -18 2 -15 -3 3 -4 -2 -10 -10 -14
-8 -3 -15 -2 -15 3 0 17 -39 19 -43 2 -4 -13 -5 -13 -6 3 -1 15 -4 16 -16 6
-12 -10 -15 -10 -15 1 0 11 -2 11 -10 -1 -8 -12 -12 -12 -18 -2 -7 9 -15 10
-35 3 -26 -10 -32 -7 -28 13 1 5 -6 3 -15 -5 -12 -9 -15 -9 -10 -1 4 6 2 12
-3 12 -6 0 -11 -6 -11 -14 0 -8 -4 -17 -9 -20 -5 -3 -8 0 -7 7 0 6 -3 13 -9
14 -5 0 -9 -3 -8 -7 1 -4 -13 -7 -33 -7 -24 1 -33 5 -30 14 7 17 -10 17 -21 1
-5 -8 -28 -13 -55 -13 -39 0 -44 2 -35 14 10 12 9 12 -10 3 -13 -7 -24 -8 -28
-3 -8 14 -44 9 -38 -4 4 -13 -25 -14 -45 -1 -6 4 -12 4 -12 0 0 -4 -6 1 -14
12 -13 17 -15 17 -21 3 -6 -17 -46 -19 -97 -4 -18 5 -20 4 -8 -5 12 -8 9 -9
-13 -4 -16 4 -33 1 -41 -5 -12 -10 -14 -8 -9 11 3 13 1 19 -4 13 -4 -5 -16
-16 -26 -24 -15 -12 -17 -12 -11 3 5 14 3 15 -20 6 -18 -6 -25 -6 -21 0 11 18
-14 11 -25 -7 -11 -17 -11 -17 -6 1 5 15 2 18 -19 14 -14 -3 -25 -2 -25 1 0 4
-9 7 -19 7 -11 0 -17 -5 -14 -10 4 -5 -1 -7 -9 -3 -9 3 -21 0 -27 -6 -8 -8
-11 -8 -11 0 0 7 -18 11 -45 11 -25 -1 -45 -6 -45 -11 0 -6 -7 -2 -16 9 -8 10
-13 12 -9 4 4 -10 2 -9 -8 3 -17 21 -28 22 -21 3 7 -19 -16 -32 -27 -15 -7 12
-9 11 -9 -1 0 -13 -1 -13 -10 0 -5 8 -10 10 -10 5 0 -6 -11 -11 -25 -11 -20 0
-22 2 -12 15 10 12 9 13 -2 7 -8 -5 -17 -3 -23 5 -8 11 -9 11 -5 -1 4 -13 -4
-15 -38 -14 -24 1 -48 5 -54 8 -6 4 -11 3 -11 -2 0 -12 -43 -10 -52 3 -5 6 -8
5 -8 -3 0 -9 -5 -10 -18 -3 -11 6 -24 6 -36 -1 -13 -7 -17 -7 -12 0 3 6 2 13
-4 17 -5 3 -10 3 -10 -2 0 -4 -18 -9 -40 -9 -28 -2 -38 2 -34 10 5 8 3 8 -6
-1 -7 -6 -19 -9 -26 -6 -8 3 -14 0 -14 -7 0 -9 -4 -9 -17 1 -9 8 -14 10 -11 4
4 -6 -8 -10 -27 -10 -18 0 -31 3 -29 7 2 3 0 9 -6 13 -5 3 -10 2 -10 -4 0 -6
-6 -8 -14 -5 -8 3 -17 1 -20 -5 -4 -6 -13 -8 -21 -5 -8 4 -12 11 -9 16 4 6 1
8 -7 6 -8 -3 -13 -10 -12 -16 3 -12 -35 -3 -44 11 -3 5 -1 7 5 3 6 -3 13 -2
16 3 4 5 -1 8 -10 7 -8 -1 -20 -9 -25 -17 -5 -9 -9 -10 -9 -2 0 12 -37 12 -56
0 -14 -8 -55 3 -48 14 3 5 0 9 -5 9 -6 0 -11 -5 -11 -11 0 -5 -4 -8 -9 -5 -5
4 -12 0 -14 -6 -4 -10 -7 -10 -15 0 -10 15 -21 15 -39 1 -7 -7 -14 -6 -18 1
-5 7 -11 8 -19 1 -8 -7 -21 -6 -39 4 -24 12 -27 12 -27 -1 0 -8 -5 -12 -10 -9
-6 4 -8 10 -6 14 3 4 -1 8 -9 8 -8 0 -12 -4 -9 -9 3 -4 1 -8 -5 -8 -5 0 -11 6
-13 12 -4 10 -10 10 -30 1 -20 -9 -31 -8 -52 2 -14 8 -28 10 -30 6 -3 -4 -19
-6 -36 -3 -16 2 -36 0 -43 -5 -18 -15 -49 -24 -42 -14 10 17 -13 22 -35 9 -17
-11 -22 -11 -29 1 -6 9 -11 10 -15 2 -5 -8 -13 -8 -26 -1 -25 13 -33 13 -25
-3 4 -6 0 -4 -7 5 -9 10 -19 14 -28 8 -7 -4 -19 -6 -27 -3 -7 3 -13 0 -13 -6
0 -6 -5 -11 -11 -11 -5 0 -8 4 -4 9 3 6 -15 8 -46 5 -33 -3 -48 -1 -44 6 3 5
1 10 -4 10 -6 0 -11 -4 -11 -9 0 -13 -54 -21 -61 -9 -3 5 -18 11 -32 12 -15 2
-24 0 -22 -5 3 -4 1 -10 -5 -14 -6 -3 -10 4 -10 17 0 17 -3 19 -9 9 -6 -9 -11
-10 -15 -2 -9 15 -28 3 -20 -12 3 -7 -2 -3 -10 7 -16 20 -16 20 -16 0 -1 -18
-1 -18 -11 -1 -5 9 -15 17 -20 17 -6 0 -7 -4 -4 -10 3 -6 -1 -7 -9 -4 -11 4
-16 0 -17 -12 0 -18 -1 -17 -9 1 -5 11 -9 14 -9 7 -1 -8 -6 -10 -13 -6 -7 5
-27 7 -45 5 -22 -2 -33 2 -33 11 0 8 -3 9 -8 3 -18 -25 -40 -36 -48 -24 -5 8
-3 9 7 4 12 -8 12 -6 0 8 -13 16 -14 16 -28 0 -8 -10 -12 -12 -8 -5 8 15 0 15
-26 2 -11 -7 -19 -7 -19 -1 0 5 5 12 10 14 6 3 5 4 -2 3 -7 -2 -20 0 -29 5
-11 6 -24 2 -39 -11 -20 -17 -26 -18 -39 -7 -25 22 -45 32 -37 19 3 -6 -2 -16
-13 -21 -14 -8 -20 -8 -23 0 -4 13 -88 18 -88 6 0 -5 -4 -5 -10 -2 -5 3 -10 1
-10 -4 0 -6 -4 -11 -10 -11 -5 0 -9 5 -7 12 3 19 -55 19 -76 1 -17 -16 -17
-16 -11 1 6 16 4 17 -15 7 -17 -10 -22 -9 -28 4 -5 13 -7 14 -14 3 -7 -10 -9
-10 -9 0 0 6 -4 12 -10 12 -5 0 -7 -7 -4 -15 5 -11 2 -14 -12 -9 -11 4 -24 11
-30 15 -6 5 -20 1 -33 -7 -19 -14 -27 -14 -46 -4 -12 7 -32 9 -44 5 -22 -7
-30 10 -8 18 7 3 5 6 -5 6 -16 1 -22 -9 -20 -30 1 -4 -10 -2 -23 5 -14 6 -25
14 -25 19 0 4 -4 7 -10 7 -5 0 -7 -6 -4 -14 4 -10 -4 -13 -30 -13 -20 1 -36 5
-36 10 0 5 -7 4 -16 -4 -10 -8 -18 -9 -22 -2 -4 6 -17 13 -29 17 -17 6 -23 3
-23 -8 0 -9 -4 -16 -10 -16 -5 0 -10 5 -10 11 0 5 -5 7 -10 4 -5 -3 -10 -1
-10 4 0 6 -4 11 -10 11 -5 0 -6 -7 -3 -17 5 -12 3 -14 -8 -7 -19 11 -41 14
-53 7 -5 -4 -21 -7 -34 -8 -22 -1 -22 0 -5 13 18 15 13 14 -31 -4 -12 -5 -17
-4 -13 3 8 13 -28 10 -45 -4 -9 -8 -16 -8 -25 2 -6 7 -9 16 -5 20 4 4 -4 4
-18 0 -14 -4 -27 -11 -30 -15 -3 -3 -13 -10 -24 -13 -13 -5 -17 -3 -13 7 6 15
-9 16 -30 3 -7 -5 -13 -4 -13 1 0 10 -50 9 -68 -2 -7 -4 -12 -3 -12 2 0 6 -7
13 -16 16 -12 5 -15 2 -10 -11 4 -10 4 -14 0 -10 -4 4 -14 1 -22 -6 -13 -9
-14 -9 -8 1 4 6 4 17 0 24 -5 8 -9 6 -14 -6 -6 -17 -7 -17 -22 -2 -22 21 -31
20 -19 -2 8 -14 6 -19 -5 -19 -7 0 -14 6 -14 14 0 17 -20 17 -20 1 0 -7 -5 -5
-11 5 -8 13 -15 15 -28 8 -12 -7 -22 -6 -31 2 -10 9 -11 9 -6 0 9 -16 5 -16
-29 -3 -14 5 -24 6 -21 1 3 -5 -6 -11 -20 -14 -18 -3 -24 -1 -20 9 7 20 -4 17
-21 -3 -9 -13 -13 -14 -11 -4 2 10 -7 15 -29 16 -18 1 -30 -1 -28 -5 6 -10
-16 -18 -33 -13 -10 4 -10 8 -1 19 8 10 8 14 0 14 -6 0 -11 -4 -11 -10 0 -5
-10 -14 -21 -21 -17 -8 -20 -8 -14 1 5 8 3 11 -6 8 -8 -3 -25 -1 -38 4 -17 6
-27 5 -33 -4 -6 -10 -8 -10 -8 1 0 10 -3 11 -13 2 -10 -8 -19 -7 -33 3 -13 10
-23 11 -31 4 -9 -7 -13 -7 -13 1 0 6 -4 11 -10 11 -5 0 -7 -7 -4 -15 4 -8 1
-15 -5 -15 -6 0 -11 5 -11 10 0 6 -5 10 -11 10 -5 0 -7 -4 -4 -10 3 -5 -9 -3
-27 4 -28 12 -34 12 -45 -3 -11 -15 -12 -15 -13 2 0 12 -4 15 -12 11 -7 -4
-21 -9 -32 -10 -12 -1 -34 -5 -51 -8 -29 -6 -29 -6 -10 10 19 16 19 16 -10 9
-77 -17 -95 -18 -90 -2 5 11 0 13 -19 10 -14 -3 -24 -9 -21 -13 3 -4 -2 -10
-10 -14 -8 -3 -17 -1 -21 5 -4 6 -11 6 -20 -2 -10 -8 -14 -8 -14 0 0 6 5 12
10 12 6 1 14 2 19 3 5 0 13 4 17 9 13 13 -17 8 -53 -9 -25 -13 -37 -14 -46 -5
-14 14 -51 15 -42 1 9 -15 -39 -8 -59 9 -9 7 -22 11 -30 8 -8 -3 -17 -1 -20 6
-4 7 -4 2 -2 -10 5 -26 -9 -31 -18 -8 -4 12 -10 13 -25 6 -10 -6 -21 -7 -25
-4 -3 3 -6 1 -6 -6 0 -7 -5 -9 -12 -5 -7 4 -29 7 -50 7 -21 0 -41 4 -44 9 -3
5 -14 2 -24 -7 -16 -15 -19 -15 -34 1 -13 13 -19 14 -31 4 -8 -7 -15 -8 -15
-3 0 15 -40 9 -50 -7 -7 -12 -10 -11 -16 3 -3 9 -10 15 -14 12 -5 -3 -22 -7
-39 -9 -28 -3 -31 -1 -26 18 5 15 4 17 -3 7 -6 -8 -17 -11 -26 -8 -8 3 -18 2
-21 -2 -5 -8 -39 -7 -82 3 -13 3 -24 -1 -27 -10 -3 -8 -10 -14 -16 -14 -6 0
-8 5 -5 10 3 6 1 10 -4 10 -6 0 -11 -5 -11 -12 0 -6 -7 -4 -18 5 -22 20 -47
23 -36 5 5 -9 2 -9 -9 1 -15 12 -17 11 -17 -5 -1 -18 -1 -18 -14 -2 -10 14
-15 15 -26 5 -10 -9 -11 -9 -5 1 6 11 3 12 -14 2 -16 -8 -26 -8 -35 -1 -7 6
-15 9 -18 6 -2 -3 -23 -7 -46 -9 -34 -3 -42 -1 -42 13 -1 15 -1 15 -10 -1 -7
-12 -18 -15 -38 -11 -15 3 -31 6 -37 7 -5 1 -16 6 -24 10 -11 7 -13 5 -9 -6 5
-11 0 -15 -15 -13 -12 1 -22 4 -22 5 0 8 -132 6 -142 -2 -14 -11 -44 -7 -58 8
-5 6 -19 14 -30 18 -11 4 -16 4 -12 0 4 -4 -2 -14 -13 -21 -17 -12 -24 -12
-36 -2 -8 6 -17 9 -21 6 -3 -4 -14 -2 -24 3 -13 8 -20 6 -27 -6 -7 -13 -11
-14 -17 -4 -4 7 -2 16 6 22 10 6 6 7 -11 2 -14 -4 -31 -7 -37 -7 -7 0 -13 -3
-13 -7 0 -3 -16 -4 -35 -2 -19 2 -35 8 -35 12 0 5 -11 3 -24 -3 -13 -7 -22
-15 -20 -19 3 -4 -2 -5 -10 -2 -9 3 -13 11 -10 16 4 6 -4 5 -16 -2 -15 -8 -20
-8 -16 -1 4 6 0 11 -11 11 -11 0 -24 5 -31 12 -9 9 -11 7 -8 -8 3 -14 -1 -20
-14 -20 -10 0 -17 3 -15 6 6 10 -79 6 -86 -3 -3 -5 -12 -3 -20 5 -19 17 -39
21 -39 6 0 -6 -3 -8 -7 -5 -3 4 -12 2 -19 -4 -8 -7 -14 -6 -20 2 -4 8 -3 9 4
5 7 -4 12 -3 12 2 0 5 -16 8 -35 8 -19 -1 -35 -4 -35 -8 0 -10 -34 -10 -44 -1
-12 12 -48 14 -40 2 4 -8 0 -8 -15 0 -13 7 -21 8 -21 2 0 -6 -7 -8 -15 -5 -8
4 -12 11 -8 17 3 6 1 7 -6 3 -6 -4 -9 -12 -6 -17 4 -5 -3 -9 -14 -9 -12 0 -21
5 -21 10 0 6 -5 10 -11 10 -6 0 -9 -7 -5 -15 4 -12 2 -13 -14 -3 -14 9 -16 15
-7 21 8 6 8 7 -3 4 -8 -2 -24 0 -35 5 -19 8 -19 8 -2 -5 17 -14 17 -15 -2 -20
-11 -2 -30 2 -42 11 -12 8 -19 11 -16 5 4 -6 -4 -11 -21 -11 -15 0 -30 5 -34
11 -5 8 -14 5 -27 -7 -17 -15 -23 -16 -36 -6 -8 7 -15 9 -15 5 0 -4 -12 0 -26
10 -15 9 -23 12 -20 6 11 -18 -3 -32 -22 -22 -30 15 -93 21 -86 8 5 -8 3 -8
-7 1 -18 17 -29 15 -29 -5 -1 -17 -1 -17 -14 -1 -10 14 -15 15 -26 5 -10 -10
-12 -9 -7 6 6 16 5 16 -17 1 -15 -9 -27 -11 -30 -5 -8 12 -30 9 -52 -9 -16
-14 -17 -13 -11 4 6 14 4 17 -8 12 -46 -19 -50 -19 -30 -2 19 15 18 15 -14 4
-30 -10 -36 -9 -48 7 -8 12 -13 14 -13 6 0 -9 -9 -12 -25 -9 -14 3 -25 1 -25
-6 0 -7 -3 -7 -8 -1 -11 16 -42 17 -60 3 -13 -11 -14 -11 -7 2 8 13 7 13 -8 1
-9 -7 -17 -9 -17 -3 0 5 -7 13 -16 16 -8 3 -13 2 -10 -2 2 -4 -13 -9 -35 -9
-21 -1 -39 2 -39 7 0 4 -10 6 -22 2 -21 -5 -21 -6 -2 -13 18 -7 18 -8 -2 -8
-11 -1 -25 4 -32 11 -9 9 -12 9 -12 -1 0 -10 -7 -9 -26 4 -15 9 -23 12 -20 6
4 -6 3 -11 -3 -11 -5 0 -13 4 -16 10 -8 13 -25 13 -25 -1 0 -5 4 -7 10 -4 6 4
7 -1 3 -11 -5 -14 -8 -13 -19 7 -14 27 -20 28 -41 2 -8 -10 -12 -13 -8 -6 4 9
-7 11 -42 7 -66 -8 -97 -5 -125 12 -6 4 -8 3 -4 -4 3 -6 2 -13 -4 -17 -5 -3
-10 2 -10 12 0 13 -2 15 -9 5 -7 -12 -56 -10 -69 2 -3 3 -11 1 -19 -5 -9 -9
-13 -8 -13 0 0 6 -5 11 -11 11 -5 0 -8 -4 -5 -8 3 -5 -2 -9 -10 -9 -8 0 -13 6
-10 13 5 13 -19 13 -31 -1 -4 -4 -1 -5 7 0 10 5 12 5 5 -2 -11 -12 -78 -5 -71
6 3 4 -7 8 -20 9 -15 1 -23 -2 -19 -8 4 -6 11 -7 17 -4 7 4 8 2 4 -4 -9 -15
-12 -15 -30 4 -15 14 -16 14 -16 0 0 -9 -4 -16 -10 -16 -5 0 -10 5 -10 11 0 6
-7 8 -16 5 -8 -3 -12 -2 -9 4 3 6 1 10 -4 10 -6 0 -11 -4 -11 -10 0 -5 -5 -10
-11 -10 -5 0 -7 6 -3 13 6 9 4 9 -7 -1 -15 -14 -33 -17 -25 -4 3 5 -1 9 -9 9
-8 0 -15 -7 -15 -14 0 -8 -5 -11 -10 -8 -6 4 -8 12 -4 18 3 7 0 5 -8 -3 -25
-28 -55 -20 -49 13 1 5 -3 6 -9 2 -6 -3 -8 -11 -5 -16 4 -5 2 -9 -4 -9 -5 0
-12 8 -14 18 -4 14 -5 14 -6 -3 -1 -15 -3 -17 -10 -6 -7 10 -13 11 -31 1 -18
-10 -24 -9 -31 1 -5 8 -9 10 -9 4 0 -13 -80 -15 -80 -2 0 5 -7 4 -15 -3 -13
-11 -14 -10 -9 3 5 15 2 15 -25 6 -18 -6 -28 -16 -24 -22 3 -6 1 -7 -6 -3 -6
4 -9 12 -6 17 9 13 -9 11 -24 -4 -11 -10 -13 -9 -9 4 5 12 0 14 -24 11 -21 -3
-26 -7 -17 -13 8 -5 11 -9 6 -9 -4 0 -16 5 -27 12 -16 10 -23 9 -42 -7 -22
-19 -22 -19 -8 -1 14 18 14 19 -7 8 -16 -9 -24 -9 -29 0 -4 7 -3 8 4 4 7 -4
12 -2 12 3 0 15 -6 14 -37 -7 -15 -9 -24 -11 -20 -4 5 6 4 12 -2 12 -6 0 -11
-5 -11 -11 0 -6 -5 -7 -12 -2 -7 4 -23 6 -35 5 -11 -2 -24 2 -28 7 -3 6 -11
11 -17 11 -7 0 -7 -4 1 -13 8 -10 7 -14 -4 -14 -8 0 -15 6 -15 13 0 7 -4 15
-9 18 -5 4 -7 -4 -5 -16 2 -13 2 -18 -1 -11 -4 7 -19 9 -39 6 -20 -3 -38 0
-47 8 -15 15 -65 17 -77 4 -4 -5 1 -5 11 -2 11 4 16 3 12 -3 -3 -6 -15 -10
-26 -10 -11 0 -17 5 -14 10 3 6 2 10 -4 10 -5 0 -13 -5 -16 -10 -4 -6 -13 -7
-23 -1 -11 6 -24 5 -36 -1 -14 -8 -17 -7 -12 1 4 6 1 11 -8 11 -10 0 -13 -6
-9 -17 5 -16 4 -17 -8 -2 -17 19 -49 32 -49 19 0 -5 8 -11 18 -13 9 -3 5 -4
-10 -4 -15 1 -24 5 -22 9 7 11 -4 10 -29 -4 -21 -10 -21 -10 -7 7 14 17 14 18
-8 6 -12 -6 -27 -9 -32 -6 -5 3 -19 1 -31 -6 -15 -8 -19 -8 -15 0 4 6 4 11 -1
12 -4 0 -16 2 -25 4 -10 2 -20 -1 -24 -6 -3 -5 -11 -6 -17 -2 -7 4 -24 8 -39
8 -20 1 -24 -2 -17 -12 8 -9 5 -11 -10 -10 -11 0 -18 4 -16 7 1 3 -3 11 -11
18 -14 12 -19 5 -15 -20 0 -4 -10 -3 -24 2 -14 5 -25 7 -25 4 0 -4 -11 1 -25
10 -27 17 -60 22 -50 6 3 -5 13 -7 23 -4 14 5 14 3 -2 -10 -14 -12 -23 -13
-33 -5 -7 6 -13 8 -13 4 0 -4 -7 -2 -15 5 -8 6 -19 9 -25 5 -5 -3 -10 -2 -10
4 0 10 -14 9 -42 -4 -10 -4 -31 -2 -48 3 -21 8 -32 8 -36 0 -4 -7 -2 -8 4 -4
7 4 12 3 12 -3 0 -5 -9 -9 -19 -8 -11 0 -18 4 -15 8 2 4 -3 9 -11 12 -9 4 -12
1 -8 -9 3 -7 0 -14 -6 -14 -6 0 -11 3 -11 8 0 4 -10 13 -21 21 -20 12 -21 11
-15 -6 6 -14 5 -15 -5 -6 -8 8 -18 9 -31 2 -14 -7 -20 -6 -24 6 -6 14 -8 14
-26 -2 -14 -12 -21 -14 -27 -5 -4 7 -18 9 -36 6 -55 -12 -223 -8 -238 5 -12 9
-16 8 -21 -4 -3 -8 -10 -15 -16 -15 -6 0 -8 5 -5 10 3 6 -1 10 -9 10 -8 0 -18
-5 -21 -10 -5 -7 -11 -8 -19 -1 -7 6 -17 6 -26 1 -10 -6 -22 -2 -38 13 -17 15
-21 17 -17 5 9 -24 -25 -28 -56 -6 -24 16 -27 16 -25 1 0 -9 -6 -18 -14 -20
-13 -4 -13 -3 0 6 8 6 13 11 10 12 -3 0 -15 2 -28 5 -14 2 -21 0 -17 -6 3 -5
1 -10 -4 -10 -6 0 -11 5 -11 10 0 7 -6 7 -20 0 -14 -8 -20 -8 -20 0 0 6 -8 10
-17 8 -10 -1 -24 1 -30 5 -7 5 -13 4 -13 -2 0 -5 -13 -9 -30 -9 -16 1 -27 4
-25 8 2 4 -2 7 -10 7 -8 0 -15 -4 -15 -9 0 -13 -30 -9 -30 5 0 6 -5 4 -11 -7
-7 -11 -14 -14 -18 -8 -6 9 -39 16 -70 13 -11 -1 -11 -4 0 -18 8 -10 -3 -5
-23 10 -33 24 -38 26 -38 10 0 -15 -2 -16 -10 -3 -8 12 -10 12 -10 -5 0 -15
-3 -17 -9 -7 -9 15 -17 15 -44 1 -12 -7 -19 -6 -23 5 -3 8 -12 12 -20 9 -8 -3
-11 -10 -8 -15 4 -6 -4 -4 -17 3 -32 17 -49 20 -49 6 0 -6 -7 -2 -15 9 -8 11
-15 14 -15 7 0 -7 -7 -13 -16 -13 -8 0 -13 4 -10 8 3 5 -2 9 -10 9 -8 0 -13
-6 -10 -12 2 -6 -2 -12 -10 -12 -7 0 -11 4 -8 9 3 4 1 8 -5 8 -5 0 -12 -6 -14
-12 -4 -10 -6 -10 -6 0 -1 9 -7 8 -26 -4 -23 -15 -25 -15 -25 2 0 9 -3 14 -7
11 -3 -4 -12 1 -20 11 -8 9 -12 12 -9 5 9 -16 -11 -26 -57 -29 -30 -2 -37 1
-33 11 3 8 1 17 -4 20 -6 4 -10 0 -10 -7 0 -8 -9 -14 -20 -15 -11 -1 -18 2
-15 7 3 4 -1 10 -9 13 -8 3 -17 0 -20 -8 -3 -8 -14 -13 -25 -12 -13 1 -17 5
-11 12 12 14 -39 12 -68 -4 -12 -6 -22 -8 -22 -2 0 5 -7 11 -14 14 -9 4 -13 1
-10 -6 2 -7 -6 -13 -21 -13 -14 -1 -22 2 -19 7 3 5 -2 9 -11 9 -9 0 -14 -3
-12 -7 3 -5 -15 -8 -39 -9 -24 0 -44 3 -44 8 0 5 5 6 10 3 6 -3 10 -1 10 5 0
7 -7 10 -15 7 -8 -4 -17 -2 -20 4 -8 12 -25 2 -25 -14 0 -7 4 -6 10 3 5 8 10
11 10 5 0 -5 -4 -16 -9 -24 -7 -11 -11 -10 -19 5 -9 16 -12 16 -28 4 -13 -11
-16 -11 -10 -2 6 10 3 13 -10 11 -11 -2 -25 0 -33 5 -9 6 -12 5 -7 -2 3 -6 2
-13 -3 -16 -5 -4 -12 -2 -15 2 -3 5 -18 7 -33 5 -22 -4 -25 -2 -13 6 11 9 5
10 -27 8 -23 -2 -46 -6 -49 -10 -4 -4 -14 -1 -22 6 -13 10 -14 9 -7 -2 6 -11
4 -13 -11 -7 -10 5 -31 9 -45 11 -15 1 -32 6 -38 9 -7 5 -10 2 -9 -6 2 -7 10
-16 18 -20 13 -6 13 -7 -1 -7 -8 -1 -25 8 -37 19 -12 11 -27 20 -34 20 -10 0
-10 -2 0 -9 11 -7 10 -10 -3 -15 -23 -8 -27 -8 -20 4 3 6 1 10 -4 10 -6 0 -11
-6 -11 -12 0 -10 -2 -10 -8 0 -6 9 -16 10 -33 3 -15 -5 -32 -5 -41 0 -8 4 -33
6 -54 3 -94 -12 -119 -13 -130 -3 -8 7 -15 6 -19 -2 -6 -8 -10 -7 -16 2 -6 10
-9 10 -9 2 0 -9 -8 -8 -27 3 -33 17 -43 18 -43 3 0 -5 6 -7 13 -3 9 5 9 3 -1
-7 -11 -12 -14 -12 -22 1 -5 8 -6 18 -4 22 3 5 -6 3 -21 -4 -18 -8 -22 -14
-13 -20 19 -11 0 -10 -23 3 -11 5 -17 15 -14 22 4 7 0 4 -8 -6 -19 -23 -25
-23 -44 0 -8 10 -11 12 -7 4 5 -11 1 -12 -20 -7 -21 5 -26 4 -20 -6 6 -11 5
-11 -8 0 -13 10 -17 10 -21 0 -4 -10 -6 -10 -6 0 -1 6 -12 12 -25 12 -13 0
-26 -6 -29 -12 -3 -10 -7 -10 -19 0 -11 9 -18 10 -23 2 -4 -6 -12 -7 -24 -1
-18 10 -67 8 -78 -3 -4 -3 -15 1 -25 11 -10 9 -18 11 -18 5 0 -6 -17 -11 -37
-10 -21 0 -42 -1 -48 -2 -23 -5 -34 1 -29 15 5 13 3 13 -22 0 -15 -7 -32 -11
-38 -7 -6 3 -19 5 -28 4 -10 -2 -18 2 -18 7 0 6 -5 11 -11 11 -5 0 -7 -5 -3
-12 5 -8 2 -9 -10 -5 -10 4 -26 3 -36 -3 -13 -7 -19 -6 -24 5 -3 8 -10 15 -16
15 -6 0 -8 -5 -4 -12 5 -8 2 -9 -9 -5 -9 3 -19 2 -22 -3 -4 -7 -13 -6 -25 0
-24 13 -33 13 -24 -1 3 -6 -5 -3 -20 6 -23 16 -30 14 -27 -7 0 -4 -10 -3 -24
2 -15 6 -27 6 -30 0 -3 -6 -15 -6 -30 0 -14 5 -32 7 -40 4 -8 -4 -15 -1 -15 5
0 8 -6 9 -17 3 -10 -5 -24 -7 -31 -5 -6 3 -12 0 -12 -6 0 -6 -8 -11 -17 -10
-11 0 -13 3 -5 6 6 2 10 9 6 14 -3 5 -13 5 -24 -1 -16 -9 -19 -8 -14 7 5 16 4
16 -8 3 -14 -16 -58 -23 -58 -9 0 4 -9 6 -20 4 -11 -2 -22 1 -26 7 -4 6 -9 5
-15 -3 -7 -11 -12 -12 -28 -2 -17 11 -19 10 -15 -2 5 -11 -1 -14 -20 -13 -14
1 -26 7 -26 13 0 5 -15 10 -34 10 -19 0 -32 -3 -30 -6 2 -4 -3 -10 -12 -13
-12 -5 -15 -2 -10 10 6 15 4 15 -11 3 -9 -8 -14 -9 -10 -2 4 6 3 14 -3 18 -5
3 -10 0 -10 -8 0 -7 -6 -14 -14 -14 -8 0 -12 7 -9 16 3 12 1 11 -11 -3 -8 -10
-22 -16 -30 -13 -9 4 -18 2 -21 -4 -10 -15 -27 1 -20 19 5 14 3 14 -13 -1 -10
-9 -21 -14 -25 -11 -9 10 -107 10 -107 1 0 -5 -4 -5 -10 -2 -5 3 -20 1 -32 -5
-22 -11 -22 -10 -4 4 23 19 15 32 -11 18 -10 -5 -42 -12 -70 -15 -46 -5 -54
-3 -68 16 -8 12 -15 17 -15 12 0 -6 -11 -15 -25 -22 -14 -6 -23 -7 -19 -2 8
13 -10 11 -25 -3 -8 -8 -11 -8 -8 -2 5 8 -7 11 -38 10 -24 -2 -42 1 -39 6 3 4
-1 8 -9 8 -8 0 -17 -7 -21 -15 -3 -8 -13 -15 -23 -15 -15 0 -16 2 -3 10 11 7
11 10 2 10 -7 0 -10 6 -7 13 4 6 -2 2 -13 -10 l-19 -22 -11 22 c-6 12 -11 16
-11 10 -1 -7 -11 -13 -24 -13 -13 0 -29 -6 -36 -12 -10 -9 -12 -9 -7 -1 3 6 2
14 -4 18 -5 3 -10 0 -10 -7 0 -9 -3 -9 -10 2 -7 10 -10 11 -10 2 0 -14 -44 -9
-64 7 -9 7 -16 7 -23 0 -15 -15 -105 -17 -110 -1 -4 10 -8 10 -21 0 -12 -10
-14 -10 -8 0 11 18 -4 15 -26 -5 -15 -13 -19 -14 -16 -3 2 10 -10 15 -47 17
-36 3 -46 1 -35 -6 9 -7 10 -11 3 -11 -7 0 -17 8 -22 18 -7 11 -10 12 -11 3 0
-7 -6 -11 -14 -8 -8 3 -17 1 -20 -6 -5 -9 -7 -9 -12 1 -3 6 -10 9 -15 6 -6 -3
-17 0 -26 8 -12 9 -15 9 -9 1 4 -7 4 -13 -1 -14 -47 -4 -73 -2 -73 6 0 6 -3 5
-8 -1 -10 -15 -42 -14 -42 2 0 10 -7 10 -34 -1 -31 -13 -37 -13 -50 1 -9 9
-16 11 -16 4 0 -6 -4 -8 -10 -5 -6 3 -10 0 -10 -7 0 -9 -3 -9 -10 2 -5 8 -10
11 -10 6 0 -5 -6 -4 -13 3 -10 8 -17 7 -25 -1 -8 -8 -18 -9 -36 0 -20 9 -25 8
-30 -5 -6 -14 -8 -14 -20 2 -9 13 -19 16 -32 11 -38 -15 -94 -18 -94 -4 0 9
-3 9 -10 -2 -8 -13 -10 -13 -10 -1 0 11 -4 10 -14 -4 -13 -18 -13 -18 -24 1
-6 10 -12 16 -12 12 0 -4 -13 -3 -30 2 -35 10 -40 4 -7 -10 22 -9 22 -9 -3 -7
-14 1 -32 7 -40 12 -8 5 -24 10 -35 12 -11 1 -14 -1 -7 -4 10 -4 10 -8 1 -19
-9 -11 -15 -11 -25 -3 -8 6 -11 15 -8 20 3 5 3 9 -1 9 -3 0 -10 -10 -15 -22
-7 -18 -9 -19 -9 -5 -1 19 -12 22 -28 6 -7 -7 -13 -7 -17 0 -4 5 -14 7 -23 4
-9 -4 -22 1 -30 13 -14 18 -15 18 -8 -6 6 -20 5 -23 -6 -15 -16 12 -39 13 -56
2 -8 -5 -11 -1 -8 14 3 17 2 19 -10 9 -8 -7 -13 -16 -10 -19 2 -4 -2 -8 -11
-8 -10 0 -12 7 -8 21 7 20 6 20 -21 2 -15 -10 -24 -13 -21 -7 4 6 2 11 -3 11
-6 0 -11 -6 -11 -12 0 -9 -4 -8 -10 2 -7 11 -10 11 -10 2 0 -7 -4 -10 -10 -7
-5 3 -10 1 -10 -4 0 -6 -5 -11 -11 -11 -5 0 -8 4 -4 9 3 5 1 12 -5 16 -5 3
-10 1 -10 -4 0 -6 -9 -11 -20 -11 -11 0 -20 5 -20 10 0 6 -7 10 -16 10 -9 0
-14 -6 -11 -13 3 -8 -1 -14 -9 -14 -7 0 -11 4 -8 8 2 4 0 10 -5 14 -5 3 -15
-3 -21 -12 -10 -16 -11 -16 -7 3 5 23 -11 26 -34 7 -15 -11 -53 -11 -81 2 -11
4 -18 3 -18 -4 0 -6 -7 -11 -16 -11 -12 0 -14 3 -6 13 8 9 0 12 -36 12 -27 0
-50 -5 -55 -12 -12 -19 -27 -15 -20 5 6 15 5 16 -12 2 -11 -9 -16 -10 -11 -2
4 6 2 12 -3 12 -6 0 -11 -7 -11 -15 0 -8 -5 -15 -10 -15 -6 0 -9 5 -8 12 3 12
-46 14 -89 4 -14 -3 -23 0 -23 7 0 7 -7 4 -14 -5 -17 -23 -26 -23 -21 0 2 11
-3 19 -11 19 -8 0 -14 -7 -14 -16 0 -10 -3 -12 -8 -5 -4 6 -16 9 -27 7 -45 -9
-128 -7 -132 2 -2 6 -13 11 -23 12 -11 1 -18 -2 -15 -8 4 -5 0 -9 -9 -9 -8 0
-17 6 -19 13 -3 7 -6 5 -6 -5 -1 -19 -26 -25 -36 -8 -4 6 -15 6 -30 0 -20 -8
-29 -5 -46 13 -16 17 -19 18 -13 4 8 -22 -15 -20 -33 3 -11 13 -12 12 -6 -4 5
-15 3 -18 -10 -13 -9 3 -17 2 -17 -4 0 -6 -9 -5 -23 3 -28 15 -49 19 -41 7 3
-5 10 -6 16 -3 7 4 8 2 4 -4 -9 -15 -12 -15 -30 4 -9 8 -16 11 -16 5 0 -14
-47 -14 -55 -1 -3 6 -11 10 -16 10 -6 0 -7 -5 -4 -10 4 -6 -5 -5 -20 2 -22 10
-28 9 -36 -3 -6 -10 -9 -10 -9 -1 0 10 -5 10 -20 2 -15 -8 -20 -8 -20 1 0 7
-7 8 -18 4 -21 -9 -27 -9 -74 3 -28 7 -35 7 -32 -3 6 -16 -47 -7 -58 9 -5 7
-8 6 -8 -4 -1 -11 -4 -10 -15 4 -12 16 -15 17 -15 4 0 -9 -9 -18 -21 -21 -16
-4 -19 -2 -15 11 5 13 3 12 -9 -2 -8 -11 -15 -14 -15 -8 0 10 -5 10 -20 2 -17
-9 -20 -8 -20 9 0 21 -13 22 -44 4 -12 -7 -29 -8 -42 -3 -16 6 -26 5 -34 -6
-7 -7 -17 -14 -22 -14 -6 0 -4 8 3 17 12 15 12 16 -3 10 -10 -3 -20 -2 -23 3
-4 6 -12 10 -18 9 -9 0 -9 -2 0 -6 7 -2 13 -11 13 -18 0 -17 -41 -8 -57 13 -8
10 -13 11 -13 4 0 -16 -27 -15 -33 1 -3 9 -8 9 -18 -2 -12 -12 -12 -13 1 -6
13 8 13 7 1 -9 -13 -15 -15 -16 -23 -2 -7 13 -13 14 -30 5 -17 -9 -20 -9 -16
3 4 10 -2 13 -21 12 -16 -1 -25 -7 -23 -14 3 -11 0 -11 -12 0 -13 10 -16 10
-16 -1 0 -10 -2 -11 -8 -2 -4 6 -21 13 -37 15 -22 2 -29 -1 -27 -12 1 -10 -2
-9 -13 4 -10 13 -15 15 -15 6 0 -10 -3 -10 -12 3 -10 12 -17 14 -30 6z m553
-32 c-13 -13 -26 -3 -16 12 3 6 11 8 17 5 6 -4 6 -10 -1 -17z m3169 -51 c0
-11 -19 -15 -25 -6 -3 5 1 10 9 10 9 0 16 -2 16 -4z m5780 -106 c0 -5 -5 -10
-11 -10 -5 0 -7 5 -4 10 3 6 8 10 11 10 2 0 4 -4 4 -10z m3910 -70 c0 -5 -5
-10 -11 -10 -5 0 -7 5 -4 10 3 6 8 10 11 10 2 0 4 -4 4 -10z m4864 -92 c-3 -4
-11 -5 -19 -1 -21 7 -19 12 4 10 11 0 18 -5 15 -9z m2771 -56 c-3 -3 -11 0
-18 7 -9 10 -8 11 6 5 10 -3 15 -9 12 -12z m600 -2 c-3 -5 -12 -10 -18 -10 -7
0 -6 4 3 10 19 12 23 12 15 0z m1405 -30 c0 -5 -2 -10 -4 -10 -3 0 -8 5 -11
10 -3 6 -1 10 4 10 6 0 11 -4 11 -10z m2667 -52 c-3 -8 -6 -5 -6 6 -1 11 2 17
5 13 3 -3 4 -12 1 -19z m8087 -136 c3 -5 -1 -9 -9 -9 -8 0 -12 4 -9 9 3 4 7 8
9 8 2 0 6 -4 9 -8z m236 0 c0 -5 -7 -9 -15 -9 -8 0 -12 4 -9 9 3 4 9 8 15 8 5
0 9 -4 9 -8z m1270 -32 c0 -5 -2 -10 -4 -10 -3 0 -8 5 -11 10 -3 6 -1 10 4 10
6 0 11 -4 11 -10z m1500 -14 c0 -3 -4 -8 -10 -11 -5 -3 -10 -1 -10 4 0 6 5 11
10 11 6 0 10 -2 10 -4z m2714 -58 c-3 -4 -9 -8 -15 -8 -5 0 -9 4 -9 8 0 5 7 9
15 9 8 0 12 -4 9 -9z m1396 -16 c0 -4 -9 -8 -19 -8 -11 0 -17 4 -15 8 3 4 12
8 20 8 8 0 14 -4 14 -8z m1130 -32 c0 -5 -5 -10 -11 -10 -5 0 -7 5 -4 10 3 6
8 10 11 10 2 0 4 -4 4 -10z m272 1 c8 11 9 11 6 1 -4 -16 -22 -18 -24 -2 -2 7
-1 6 3 -1 4 -8 8 -7 15 2z m662 -23 c-3 -5 -12 -4 -20 3 -19 16 -18 18 6 12
11 -3 17 -9 14 -15z m1806 -28 c0 -5 -7 -7 -15 -4 -8 4 -15 8 -15 10 0 2 7 4
15 4 8 0 15 -4 15 -10z m107 4 c-3 -3 -12 -4 -19 -1 -8 3 -5 6 6 6 11 1 17 -2
13 -5z m890 -19 c0 -8 -4 -12 -9 -9 -5 3 -6 10 -3 15 9 13 12 11 12 -6z m849
-8 c4 -4 -2 -7 -14 -7 -12 0 -22 4 -22 9 0 10 26 9 36 -2z m38 -8 c-6 -11 -24
-2 -24 11 0 5 7 7 15 4 8 -4 12 -10 9 -15z m200 5 c3 -8 2 -12 -4 -9 -6 3 -10
10 -10 16 0 14 7 11 14 -7z m-414 -4 c0 -5 -2 -10 -4 -10 -3 0 -8 5 -11 10 -3
6 -1 10 4 10 6 0 11 -4 11 -10z m3175 -50 c-3 -5 -14 -10 -23 -9 -14 0 -13 2
3 9 27 11 27 11 20 0z m2119 -36 c3 -8 2 -12 -4 -9 -6 3 -10 10 -10 16 0 14 7
11 14 -7z m1276 -34 c0 -5 -5 -10 -11 -10 -5 0 -7 5 -4 10 3 6 8 10 11 10 2 0
4 -4 4 -10z m1042 -22 c-7 -7 -12 -8 -12 -2 0 14 12 26 19 19 2 -3 -1 -11 -7
-17z m2565 -44 c-3 -3 -12 -4 -19 -1 -8 3 -5 6 6 6 11 1 17 -2 13 -5z m2043
-33 c0 -5 -9 -7 -20 -4 -11 3 -20 7 -20 9 0 2 9 4 20 4 11 0 20 -4 20 -9z
m3690 -61 c0 -5 -5 -10 -11 -10 -5 0 -7 5 -4 10 3 6 8 10 11 10 2 0 4 -4 4
-10z m74 -7 c4 -11 1 -11 -14 -3 -24 13 -25 17 -5 17 8 0 16 -6 19 -14z m301
-3 c3 -5 1 -10 -4 -10 -6 0 -11 5 -11 10 0 6 2 10 4 10 3 0 8 -4 11 -10z"/>
<path d="M3640 4419 c0 -5 5 -7 10 -4 6 3 10 8 10 11 0 2 -4 4 -10 4 -5 0 -10
-5 -10 -11z"/>
<path d="M5160 4396 c0 -2 7 -7 16 -10 8 -3 12 -2 9 4 -6 10 -25 14 -25 6z"/>
<path d="M5721 4393 c-1 -17 16 -25 25 -12 4 7 3 9 -4 5 -5 -3 -13 0 -15 6 -4
9 -6 10 -6 1z"/>
<path d="M7555 4350 c-3 -5 -1 -10 4 -10 6 0 11 5 11 10 0 6 -2 10 -4 10 -3 0
-8 -4 -11 -10z"/>
<path d="M8648 4333 c7 -3 16 -2 19 1 4 3 -2 6 -13 5 -11 0 -14 -3 -6 -6z"/>
<path d="M8770 4330 c0 -5 5 -10 11 -10 5 0 7 5 4 10 -3 6 -8 10 -11 10 -2 0
-4 -4 -4 -10z"/>
<path d="M12210 4276 c0 -3 9 -10 20 -16 11 -6 20 -8 20 -6 0 3 -9 10 -20 16
-11 6 -20 8 -20 6z"/>
<path d="M12720 4259 c0 -5 5 -7 10 -4 6 3 10 8 10 11 0 2 -4 4 -10 4 -5 0
-10 -5 -10 -11z"/>
<path d="M13510 4246 c0 -2 7 -7 16 -10 8 -3 12 -2 9 4 -6 10 -25 14 -25 6z"/>
<path d="M13796 4242 c-3 -5 1 -9 9 -9 8 0 12 4 9 9 -3 4 -7 8 -9 8 -2 0 -6
-4 -9 -8z"/>
<path d="M13888 4243 c7 -3 16 -2 19 1 4 3 -2 6 -13 5 -11 0 -14 -3 -6 -6z"/>
<path d="M14335 4230 c3 -5 8 -10 11 -10 2 0 4 5 4 10 0 6 -5 10 -11 10 -5 0
-7 -4 -4 -10z"/>
<path d="M18920 4144 c0 -8 5 -12 10 -9 6 4 8 11 5 16 -9 14 -15 11 -15 -7z"/>
<path d="M20160 4119 c0 -5 5 -7 10 -4 6 3 10 8 10 11 0 2 -4 4 -10 4 -5 0
-10 -5 -10 -11z"/>
<path d="M20400 4120 c0 -5 5 -10 10 -10 6 0 10 5 10 10 0 6 -4 10 -10 10 -5
0 -10 -4 -10 -10z"/>
<path d="M21495 4100 c3 -5 8 -10 11 -10 2 0 4 5 4 10 0 6 -5 10 -11 10 -5 0
-7 -4 -4 -10z"/>
<path d="M24920 4039 c0 -5 5 -7 10 -4 6 3 10 8 10 11 0 2 -4 4 -10 4 -5 0
-10 -5 -10 -11z"/>
<path d="M28238 3973 c7 -3 16 -2 19 1 4 3 -2 6 -13 5 -11 0 -14 -3 -6 -6z"/>
<path d="M29200 3959 c0 -5 5 -7 10 -4 6 3 10 8 10 11 0 2 -4 4 -10 4 -5 0
-10 -5 -10 -11z"/>
<path d="M29737 3949 c7 -7 15 -10 18 -7 3 3 -2 9 -12 12 -14 6 -15 5 -6 -5z"/>
<path d="M30085 3950 c-3 -5 -1 -10 4 -10 6 0 11 5 11 10 0 6 -2 10 -4 10 -3
0 -8 -4 -11 -10z"/>
<path d="M32485 3900 c3 -5 11 -10 16 -10 6 0 7 5 4 10 -3 6 -11 10 -16 10 -6
0 -7 -4 -4 -10z"/>
<path d="M32920 3901 c0 -10 19 -25 25 -20 1 2 -3 10 -11 17 -8 7 -14 8 -14 3z"/>
<path d="M37334 3818 c-4 -6 -3 -8 4 -4 5 3 12 1 14 -6 3 -8 6 -9 11 -1 4 6 0
13 -8 17 -8 3 -17 0 -21 -6z"/>
<path d="M38780 3795 c0 -8 4 -15 10 -15 5 0 7 7 4 15 -4 8 -8 15 -10 15 -2 0
-4 -7 -4 -15z"/>
<path d="M40680 3755 c-11 -13 -10 -14 4 -9 9 3 16 10 16 15 0 13 -6 11 -20
-6z"/>
<path d="M41413 3745 c0 -8 4 -12 9 -9 5 3 6 10 3 15 -9 13 -12 11 -12 -6z"/>
<path d="M43870 3700 c0 -5 5 -10 11 -10 5 0 7 5 4 10 -3 6 -8 10 -11 10 -2 0
-4 -4 -4 -10z"/>
<path d="M44860 3682 c0 -5 7 -9 15 -9 8 0 12 4 9 9 -3 4 -9 8 -15 8 -5 0 -9
-4 -9 -8z"/>
<path d="M45250 3680 c0 -13 18 -22 24 -11 3 5 -1 11 -9 15 -8 3 -15 1 -15 -4z"/>
<path d="M63441 3674 c0 -11 3 -14 6 -6 3 7 2 16 -1 19 -3 4 -6 -2 -5 -13z"/>
<path d="M63461 3604 c0 -11 3 -14 6 -6 3 7 2 16 -1 19 -3 4 -6 -2 -5 -13z"/>
<path d="M49096 3598 c3 -5 10 -6 15 -3 13 9 11 12 -6 12 -8 0 -12 -4 -9 -9z"/>
<path d="M49465 3599 c-4 -6 -5 -12 -2 -15 2 -3 7 2 10 11 7 17 1 20 -8 4z"/>
<path d="M52812 3533 c6 -7 14 -13 18 -13 3 0 7 6 7 13 0 7 -8 13 -18 13 -13
0 -15 -3 -7 -13z"/>
<path d="M52708 3533 c7 -3 16 -2 19 1 4 3 -2 6 -13 5 -11 0 -14 -3 -6 -6z"/>
<path d="M53140 3536 c0 -2 7 -6 15 -10 8 -3 15 -1 15 4 0 6 -7 10 -15 10 -8
0 -15 -2 -15 -4z"/>
<path d="M55355 3490 c3 -5 8 -10 11 -10 2 0 4 5 4 10 0 6 -5 10 -11 10 -5 0
-7 -4 -4 -10z"/>
<path d="M55791 3484 c0 -11 3 -14 6 -6 3 7 2 16 -1 19 -3 4 -6 -2 -5 -13z"/>
<path d="M59570 3416 c0 -8 7 -16 15 -20 13 -4 14 -2 5 14 -13 23 -20 26 -20
6z"/>
<path d="M59930 3410 c0 -5 5 -10 11 -10 5 0 7 5 4 10 -3 6 -8 10 -11 10 -2 0
-4 -4 -4 -10z"/>
<path d="M60320 3400 c0 -5 7 -7 15 -4 8 4 15 8 15 10 0 2 -7 4 -15 4 -8 0
-15 -4 -15 -10z"/>
<path d="M60360 3400 c0 -5 5 -10 11 -10 5 0 7 5 4 10 -3 6 -8 10 -11 10 -2 0
-4 -4 -4 -10z"/>
<path d="M60447 3396 c-4 -10 -1 -13 8 -9 8 3 12 9 9 14 -7 12 -11 11 -17 -5z"/>
<path d="M62266 3371 c-4 -5 -2 -12 3 -15 5 -4 12 -2 15 3 4 5 2 12 -3 15 -5
4 -12 2 -15 -3z"/>
</g>
</svg>
